<svg width="400" height="400" viewBox="0 0 400 400" fill="none" xmlns="http://www.w3.org/2000/svg">
<path fill-rule="evenodd" clip-rule="evenodd" d="M193.963 9.08733C141.347 10.7172 94.2902 33.7182 60.8412 69.3714C27.2977 105.119 7.36295 153.519 9.08733 206.039C10.7172 258.655 33.7183 305.711 69.3714 339.16C105.119 372.704 153.519 392.638 206.039 390.914C258.655 389.284 305.713 366.283 339.16 330.631C372.704 294.882 392.638 246.483 390.914 193.963C389.283 141.346 366.283 94.2888 330.63 60.8412C294.881 27.2977 246.483 7.36296 193.963 9.08733ZM193.679 0.108426C248.668 -1.6978 299.343 19.1754 336.774 54.2965C374.102 89.3174 398.186 138.588 399.892 193.679C401.698 248.669 380.826 299.344 345.705 336.774C310.684 374.102 261.414 398.187 206.323 399.892C151.333 401.698 100.657 380.826 63.2274 345.705C25.8979 310.684 1.81446 261.414 0.108426 206.322C-1.6978 151.331 19.1754 100.657 54.2965 63.2274C89.3174 25.8979 138.588 1.81446 193.679 0.108426Z" fill="#E0C185"/>
<path fill-rule="evenodd" clip-rule="evenodd" d="M195.736 65.1197C158.563 66.2711 125.316 82.5215 101.685 107.71C77.9855 132.966 63.9012 167.16 65.1204 204.266C66.2719 241.441 82.5223 274.687 107.711 298.317C132.967 322.017 167.162 336.1 204.267 334.882C241.442 333.73 274.687 317.48 298.318 292.292C322.017 267.034 336.1 232.84 334.882 195.735C333.73 158.561 317.481 125.315 292.291 101.684C267.035 77.9848 232.841 63.9019 195.736 65.1197ZM195.441 55.8177C235.106 54.5152 271.658 69.5704 298.656 94.9026C325.582 120.164 342.953 155.703 344.184 195.441C345.487 235.105 330.432 271.658 305.098 298.657C279.838 325.581 244.299 342.953 204.562 344.184C164.897 345.486 128.344 330.431 101.346 305.097C74.4211 279.837 57.0489 244.298 55.8184 204.56C54.5159 164.895 69.5711 128.343 94.9048 101.346C120.165 74.4189 155.704 57.0482 195.441 55.8177Z" fill="#E0C185"/>
<path fill-rule="evenodd" clip-rule="evenodd" d="M247.024 207.936C251.441 206.184 258.718 200.433 261.315 197.057C254.95 201.309 251.441 203.184 247.415 202.184C247.544 203.56 247.024 206.56 247.024 207.936ZM251.965 282.173C251.561 282.767 252.267 283.359 253.175 283.856C256.703 285.737 259.829 285.54 263.661 285.638C266.584 285.638 270.718 285.54 273.24 284.944C277.473 284.052 281.405 281.284 284.732 278.61C288.261 275.641 291.083 271.186 292.799 267.326C294.007 264.851 294.311 263.367 295.016 260.497C295.116 259.605 293.303 259.21 292.898 258.417C292.294 257.13 292.294 256.04 292.496 254.655C292.596 253.665 293.705 253.172 293.705 252.181C293.705 251.389 292.294 251.192 291.992 250.499C291.589 249.608 291.487 248.022 291.69 247.035C291.992 245.945 293.403 246.441 293.705 244.955C293.907 244.459 293.505 244.164 293 244.063C291.891 243.965 291.185 244.459 290.177 244.262C288.766 243.965 288.463 241.293 287.355 242.084C284.934 243.766 284.732 247.232 283.219 249.706C281.808 254.062 277.977 258.218 275.255 262.08C273.138 265.149 272.029 267.226 269.608 269.603C267.693 271.68 265.476 273.166 263.962 274.452C262.652 275.739 262.047 276.829 259.525 278.114C259.225 278.511 257.914 278.807 256.301 279.401C255.292 279.796 254.787 281.085 254.383 281.284C253.779 281.579 252.368 281.579 251.965 282.173ZM185.577 312.068C185.7 312.318 216.111 312.568 216.111 312.568C219.189 309.434 220.052 305.298 219.436 301.286C218.819 298.906 214.635 294.517 212.05 293.138C209.463 291.885 206.386 291.885 203.554 292.388C201.829 292.637 200.844 295.145 199.121 295.395C196.659 295.77 197.274 293.892 191.61 294.267C187.794 294.894 183.853 296.023 181.022 298.656C179.668 299.908 180.775 303.544 181.391 305.298C182.5 310.813 184.346 310.687 185.577 312.068ZM155.275 150.92C153.763 151.91 147.008 156.661 148.017 158.839C148.722 159.235 150.839 160.621 152.15 160.621C152.855 158.839 153.661 157.354 155.981 155.771C155.679 155.276 155.879 150.822 155.275 150.92ZM143.378 162.997C139.445 165.57 137.025 169.034 136.018 172.103C139.546 172.004 142.673 172.301 146.202 172.103C146.806 170.816 148.42 169.332 149.629 168.639C147.613 166.758 145.395 164.877 143.378 162.997ZM132.087 178.933C131.179 178.933 133.699 180.714 134.102 181.012C135.614 182.397 137.025 183.882 138.538 185.267C139.345 186.059 139.546 186.852 140.454 186.852C141.462 186.752 142.067 186.258 141.866 185.465C141.564 183.388 141.564 180.913 142.471 178.933C139.849 179.032 134.707 178.834 132.087 178.933ZM128.557 184.971C127.75 184.18 127.548 183.981 126.541 184.971C123.213 188.238 119.684 200.61 122.406 201.897C122.306 202.293 123.213 201.501 123.515 201.303C127.045 198.234 130.372 195.364 134.001 192.296C135.211 191.306 135.312 191.404 134.405 190.316L128.557 184.971ZM140.958 196.949C139.647 195.859 139.445 196.156 137.933 197.047C133.699 199.521 130.574 203.084 127.852 206.451C127.548 206.846 127.145 207.144 126.843 207.539C134.203 208.528 143.176 208.429 150.739 207.243C148.822 203.283 144.185 199.918 140.958 196.949ZM129.666 215.261C127.65 215.16 127.246 215.657 128.658 216.745C131.985 219.22 140.555 227.138 141.26 227.039C142.673 226.842 150.94 218.625 152.855 217.041C154.166 215.953 154.972 215.853 152.855 215.853C144.991 215.853 136.824 215.557 129.666 215.261ZM120.39 221.596C120.894 222.882 123.919 232.485 124.019 233.571C124.221 235.75 125.935 239.611 127.952 238.719C130.574 237.532 133.094 234.662 135.514 232.78C136.421 232.185 136.623 231.493 135.816 230.701C131.885 226.741 126.641 223.08 122.708 219.517C121.297 218.228 119.684 220.111 120.39 221.596ZM146.806 231.792L153.864 239.017C155.375 240.6 155.477 241.293 155.577 238.818C155.679 234.264 155.779 226.644 155.981 222.584C155.679 222.486 151.444 227.138 150.637 227.831C149.327 229.216 148.117 230.503 146.806 231.792ZM142.673 238.423C141.058 237.037 140.958 236.64 139.546 238.125C137.227 240.302 135.312 242.084 132.69 243.668C131.078 244.658 129.666 245.351 132.287 245.45C137.731 245.647 143.277 245.549 149.024 245.351C151.846 245.254 150.033 244.559 148.622 243.371C146.604 241.688 144.487 240.006 142.673 238.423ZM135.009 251.883C133.8 251.883 132.992 251.784 133.699 253.073C134.807 255.053 136.018 257.23 137.631 259.011C138.64 260.199 139.647 261.683 141.058 261.586C141.564 261.586 142.369 261.387 142.975 260.793C144.487 259.506 149.73 255.15 151.141 253.468C151.646 252.775 151.646 252.082 150.537 251.983C144.891 251.687 140.857 251.784 135.009 251.883ZM161.425 256.338C162.03 258.912 161.93 259.901 161.123 262.277C161.225 263.663 160.619 269.701 161.123 270.692C161.325 271.088 161.828 271.088 162.938 271.088C163.643 271.186 164.249 271.286 164.854 271.383C165.861 271.482 166.063 271.088 166.769 270.394C168.282 269.008 169.996 267.623 171.407 266.237C172.011 265.544 172.011 265.345 171.407 264.652C169.087 262.277 165.963 258.912 163.643 256.537C163.039 256.04 161.325 256.338 161.425 256.338ZM154.772 260.694C154.67 259.605 154.67 259.704 153.864 260.199L149.931 262.773C148.822 263.663 148.017 263.861 147.815 264.554C147.209 266.632 147.915 268.019 149.629 268.019C151.343 268.117 153.763 268.316 154.368 267.72C155.275 266.93 154.972 262.773 154.772 260.694ZM170.398 252.973C168.483 252.973 168.785 252.973 170.096 254.062C172.314 256.04 174.331 258.318 176.549 260.199C177.759 261.188 177.758 261.486 178.868 260.396C180.784 258.417 184.01 255.843 187.034 253.764C189.05 252.082 188.848 252.38 186.328 252.479C181.388 252.576 175.338 252.874 170.398 252.973ZM181.691 237.333C180.38 235.849 180.582 236.048 179.171 237.333C176.448 239.71 173.726 241.987 171.104 244.362C169.491 245.748 168.785 245.845 171.205 245.845C176.953 245.647 182.497 245.549 188.043 245.45C192.781 245.45 183.708 239.412 181.691 237.333ZM164.047 220.407C163.341 219.813 161.425 243.965 162.534 243.371C165.963 241.293 170.398 237.134 173.424 233.472C174.936 231.593 175.54 231.69 173.927 230.008C171.911 227.831 168.281 223.674 164.047 220.407ZM190.563 217.339C187.034 217.041 175.742 217.24 172.113 217.635C170.702 217.834 170.702 217.734 171.507 218.723C173.927 221.199 179.069 224.367 181.489 226.246C181.791 226.445 182.195 226.445 182.497 226.246C184.917 224.168 186.934 221.694 189.152 219.418C189.757 218.824 191.37 217.339 190.563 217.339ZM197.319 221.496C197.118 221.098 196.411 221.297 196.008 221.596C194.194 223.08 185.623 230.503 186.126 231.098C189.354 234.264 193.487 238.521 197.118 241.095C197.721 241.492 198.023 225.852 197.319 221.496ZM203.973 224.069C204.276 226.246 203.973 233.77 203.973 237.236C203.973 238.225 204.073 239.412 205.284 238.62C205.787 238.225 206.291 237.827 206.796 237.532C208.913 236.048 210.929 234.56 213.148 233.176C213.955 232.681 214.761 232.087 214.862 231.196C213.148 229.712 208.207 225.454 205.787 223.774C204.476 222.882 203.873 222.783 203.973 224.069ZM212.442 218.228C210.627 218.328 211.031 218.625 211.737 219.12C214.559 221.297 218.29 225.852 220.205 226.644C220.81 226.94 221.112 226.741 221.617 226.445C224.037 224.862 230.691 220.507 232.707 218.427C233.111 218.032 213.55 218.131 212.442 218.228ZM239.664 223.475C239.664 222.387 239.867 222.288 238.857 222.981C235.026 225.653 230.792 228.723 226.961 231.394C225.549 232.383 225.348 232.681 226.658 233.77C230.691 237.333 235.026 241.492 239.06 245.152C240.271 246.243 240.068 246.243 240.068 244.757C239.867 237.929 239.867 230.207 239.664 223.475ZM217.686 237.929C214.559 240.5 211.031 243.174 208.509 245.647C208.309 245.845 208.409 246.441 208.611 246.441C215.971 247.925 224.137 249.706 231.598 249.41C233.413 249.41 233.211 249.311 232.102 248.221C228.876 245.055 225.549 241.987 222.323 238.719C220.508 236.937 220.003 235.947 217.686 237.929ZM178.969 271.088C176.851 268.513 176.953 269.999 175.036 271.582C174.936 271.68 173.927 271.977 173.524 272.176C171.104 273.661 173.322 274.354 174.028 276.531C174.229 277.421 171.609 278.807 172.718 279.401C174.431 280.392 178.566 280.293 180.482 279.699C181.489 279.302 183.808 279.105 184.413 277.917C185.623 275.244 183.304 275.145 181.791 273.858C180.682 273.067 179.877 271.977 178.969 271.088ZM182.901 265.544C184.917 268.316 188.546 271.68 190.866 274.156C192.277 275.641 192.681 276.926 193.992 277.323C194.396 277.522 195.605 277.421 196.109 277.323C196.612 277.125 196.512 273.661 196.714 269.502C197.118 262.773 197.722 254.161 197.016 254.557C195.101 255.546 193.085 258.12 191.269 259.506C188.446 261.683 186.026 263.763 182.901 265.544ZM202.964 275.54C204.073 277.225 208.611 278.016 210.728 276.729C213.048 275.244 214.761 273.363 216.677 271.383C216.879 271.186 217.584 270.889 217.281 270.692C214.66 268.117 203.569 257.427 203.569 257.921C203.669 258.417 203.267 259.704 203.065 261.486C202.461 266.237 201.756 273.76 202.964 275.54ZM225.241 276.849C225.824 276.367 226.899 276.157 226.999 275.408C227.447 274.046 222.835 274.227 221.654 273.73C221.195 273.634 218.176 275.505 217.673 276.516C217.514 276.909 217.131 280.08 217.586 280.173C220.083 280.594 223.773 278.775 225.241 276.849ZM238.958 263.464C238.958 261.486 238.455 260.694 236.842 262.773C236.337 263.564 235.834 264.356 235.127 265.149C233.616 266.93 231.698 268.809 229.582 270.493C228.574 271.383 228.472 271.186 229.582 272.076C230.187 272.571 230.993 273.266 231.196 273.76C231.698 274.551 232.607 274.946 233.716 274.849C235.934 274.749 238.555 273.363 238.253 273.363C238.354 269.899 238.757 266.435 238.958 263.464ZM248.437 264.356C246.519 261.882 245.814 263.268 245.713 265.742C245.713 267.72 245.814 269.701 245.814 271.68C245.814 273.266 245.41 274.255 246.117 274.651C248.537 275.937 248.737 274.849 249.444 273.959C252.67 271.383 255.896 271.286 252.168 268.019C251.157 267.127 250.353 266.237 249.444 265.246C249.141 264.95 248.737 264.652 248.437 264.356ZM252.47 257.23C250.048 257.427 250.755 257.625 252.168 259.307C253.477 260.298 258.72 267.82 259.627 266.336C260.938 264.851 264.265 260.99 264.971 259.605C265.072 259.307 265.676 258.714 265.476 258.417C265.374 258.218 264.667 257.824 264.467 257.824C262.552 257.824 261.14 257.427 259.427 257.329C257.409 257.13 255.09 257.13 252.47 257.23ZM250.452 250.399C251.965 251.192 267.089 251.092 269.105 251.192C270.617 249.013 265.576 245.055 264.971 244.262C263.962 243.174 262.854 242.084 261.744 241.095C261.241 240.6 260.838 240.006 260.232 240.5C258.216 241.885 255.292 244.658 253.477 246.441C253.276 246.737 249.343 249.706 250.452 250.399ZM247.328 227.93C246.923 233.275 247.126 237.037 247.126 242.084C250.048 239.611 250.452 239.313 251.965 237.929C252.267 237.63 253.678 236.64 254.081 236.244C253.779 234.264 249.444 229.216 247.328 227.93ZM279.691 222.882C276.969 225.16 265.476 234.759 266.182 235.65C267.189 236.741 273.34 244.063 273.844 243.569C280.499 236.839 280.499 222.288 279.691 222.882ZM251.561 218.625C250.957 218.723 249.646 218.723 249.847 219.318C249.95 219.714 250.252 220.111 250.553 220.507C252.065 221.99 259.829 230.503 261.241 229.811C263.962 227.93 271.222 221.694 273.642 218.824C273.742 218.625 273.944 218.131 273.742 218.032C273.037 217.834 271.827 217.933 271.122 217.933C264.567 218.131 258.114 218.032 251.561 218.625ZM262.956 203.084C262.353 202.494 252.979 211.006 251.684 212.269C252.346 212.002 268.02 212.179 273.037 211.696C272.935 211.401 265.374 203.678 262.956 203.084ZM279.893 209.321C281.405 209.321 281.001 209.222 280.801 207.835C280.195 202.689 279.691 195.859 278.079 191.207C277.775 190.316 269.508 197.047 267.895 198.135C267.693 198.333 278.784 206.153 279.893 209.321ZM220.305 201.007C220.003 200.907 211.031 208.033 210.022 210.21C212.744 210.21 231.196 211.005 231.396 210.707C231.296 210.806 222.423 202.391 220.305 201.007ZM231.296 192.097C229.985 192.691 226.254 195.265 225.65 196.651C225.65 196.85 237.446 207.539 239.162 207.738C239.06 207.045 240.067 202.194 239.564 201.205C239.362 201.106 233.111 198.828 231.296 192.097ZM205.586 191.404C205.384 193.583 205.989 202.194 206.393 204.57C206.393 204.768 214.66 198.333 215.466 196.057C209.619 191.207 211.131 192.989 208.813 190.216C206.593 191.207 205.687 190.514 205.586 191.404ZM183.606 201.698L177.053 207.243L175.844 208.429L176.347 209.023L176.851 209.222L190.966 208.826L189.252 207.539L185.824 204.272L183.606 201.698ZM196.814 190.119C195.201 191.505 191.672 194.87 189.152 196.552C191.269 198.333 193.689 200.314 195.605 202.887C198.125 205.954 198.327 206.548 198.225 202.491C198.125 199.126 199.032 193.483 198.831 191.009C198.327 190.712 197.823 191.009 196.814 190.119ZM174.735 193.682C174.431 193.583 173.322 195.958 170.802 197.74C169.087 198.927 166.365 199.819 165.156 200.115C164.652 200.214 164.35 200.413 164.35 200.808C164.45 201.402 164.35 203.084 164.35 204.174C164.45 204.57 164.652 204.965 165.056 205.065C165.559 205.065 166.365 204.669 166.869 204.471C169.996 202.59 173.424 199.918 176.448 197.74C176.953 197.344 177.96 196.85 178.162 196.156C178.264 195.76 177.355 195.463 176.953 195.166C176.246 194.671 175.54 193.879 174.735 193.682ZM177.255 180.22C177.658 181.11 177.658 184.774 177.557 184.871C177.759 185.169 180.179 187.346 183.506 190.712C183.908 191.108 184.313 191.404 184.917 191.108C186.832 190.316 191.068 186.357 190.966 186.158C188.848 184.278 188.043 181.11 187.739 180.319C187.539 180.021 180.38 180.22 179.171 180.22C178.162 180.319 177.457 180.021 177.255 180.22ZM275.76 183.189C275.86 182.2 275.052 180.714 273.944 180.417C272.835 180.22 262.854 179.427 262.854 180.021C264.77 187.94 262.854 191.702 262.552 192.691C262.249 193.285 262.753 193.781 263.258 193.879C264.063 193.978 275.659 185.169 275.76 183.189ZM254.888 170.025C254.284 170.619 257.005 171.213 259.525 174.875C259.829 175.27 264.567 174.973 267.089 174.875C268.904 174.776 270.718 174.281 270.113 172.895C269.407 171.213 265.374 164.382 261.34 164.877C260.03 164.976 256.301 168.738 254.888 170.025ZM252.168 155.672C251.059 155.672 252.47 162.501 254.284 162.997C255.19 163.195 256.905 160.522 257.51 160.027C258.317 159.235 253.376 155.672 252.168 155.672ZM240.169 152.009C239.564 150.722 228.774 161.511 228.876 161.61C228.978 161.71 230.389 162.897 230.589 162.997C232.102 163.689 233.916 165.471 235.026 166.56C235.532 167.154 237.849 169.529 238.253 168.836C237.446 168.539 237.749 163.888 238.354 163.888C238.455 161.314 238.354 160.917 239.766 159.532C240.976 158.444 240.875 153.592 240.169 152.009ZM209.418 140.825C207.502 141.022 208.004 141.22 208.913 142.309C210.326 144.19 213.148 146.07 214.761 147.654L220.407 153C223.23 155.573 223.532 156.166 224.137 156.266C224.743 156.266 234.12 148.049 234.925 147.357C235.229 146.168 226.658 142.605 220.003 141.318C217.584 140.923 215.568 140.626 214.459 140.825C212.846 141.121 210.93 140.724 209.418 140.825ZM182.901 153.395C185.421 151.119 197.722 141.814 195.605 141.715C187.639 140.923 178.566 144.585 175.44 145.574C173.827 145.971 174.028 146.07 174.533 146.565C176.549 148.347 181.791 152.504 182.901 153.395ZM218.693 180.913C218.39 182.001 217.686 183.783 214.761 186.752C215.366 188.039 220.912 191.998 221.013 191.603C221.818 191.306 229.381 185.465 230.087 184.575C230.589 181.308 231.196 180.714 231.096 180.516C230.993 180.516 220.205 181.211 218.693 180.913ZM181.791 162.7C181.691 162.7 173.827 169.133 173.322 169.628C172.818 170.123 172.113 170.619 172.113 171.213C172.415 171.509 174.229 173.588 174.229 173.885C176.953 174.182 178.364 173.984 181.188 174.182C182.901 173.588 186.732 174.281 186.632 173.489C186.43 171.608 187.135 168.836 187.941 167.946C185.824 166.065 183.708 163.689 181.791 162.7ZM211.131 152.899V158.641C213.652 160.027 215.668 161.215 217.181 163.59C218.088 163.59 218.894 162.204 218.794 161.314C218.794 160.323 217.584 159.334 216.475 158.343C214.862 156.76 212.744 154.484 211.131 152.899ZM224.439 166.164C224.239 166.164 221.516 168.738 220.407 169.332C220.205 169.431 221.214 171.805 220.81 173.686C226.054 173.686 234.22 173.984 234.12 173.984C233.211 172.994 225.448 166.758 224.439 166.164ZM175.036 155.969C172.415 153.791 169.391 150.426 166.971 148.941C166.063 148.446 165.66 149.04 164.249 149.633C163.039 150.228 163.745 153.592 163.745 154.979C164.047 155.078 165.056 155.969 165.257 156.067C169.29 158.938 168.281 162.7 168.382 164.877C168.483 165.175 168.887 165.273 169.189 165.074C170.5 164.184 176.246 159.433 176.347 157.751C176.347 157.256 175.036 155.969 175.036 155.969ZM194.899 152.406C194.798 151.612 195.605 151.119 194.294 151.811C192.076 153.197 189.757 156.067 187.739 157.651C188.648 158.74 189.958 159.829 190.966 160.819C191.672 161.61 191.774 162.106 192.277 161.511C193.185 160.423 193.89 159.63 194.899 159.036C195.403 157.552 195.201 154.287 194.899 152.406ZM210.527 255.15C214.459 258.714 217.986 263.07 221.214 265.445C222.928 266.731 222.625 266.831 224.037 265.345C225.952 263.07 228.876 259.804 231.698 257.625C232.203 257.13 233.514 256.04 232.807 255.943C225.852 255.843 217.785 255.448 210.829 253.864C210.022 253.764 210.022 254.557 210.527 255.15ZM155.275 283.163C156.485 282.767 157.292 281.284 155.375 281.085C153.057 280.787 144.689 277.225 138.942 272.968C131.581 267.424 126.641 260.396 124.323 257.031C121.399 252.576 118.777 248.32 116.559 242.975C115.451 240.203 114.542 237.037 113.837 233.176C112.929 233.671 110.813 234.662 109.904 235.156C110.005 236.344 110.813 237.134 110.913 238.423C111.417 240.896 110.409 243.965 108.191 245.152C108.997 247.035 109.098 250.399 105.669 252.181C106.073 253.764 106.476 256.139 106.98 257.824C108.393 262.871 110.207 268.612 113.333 272.869C115.651 276.136 119.482 278.807 123.817 279.897C130.977 281.778 148.52 285.439 155.275 283.163ZM158.268 187.356C158.167 185.773 157.763 185.575 156.15 185.378C155.243 185.179 154.134 185.179 153.328 185.279C150.101 185.476 147.277 185.08 146.875 185.873C146.168 186.566 147.782 189.633 148.286 190.623C149.395 192.999 154.336 198.344 158.368 197.454C158.268 195.276 158.368 190.723 158.268 187.356ZM163.309 186.07C163.409 189.336 163.712 194.088 163.511 196.364C166.132 196.959 170.367 193.593 171.98 190.623C173.291 187.95 173.895 185.279 173.189 185.08C171.475 184.486 165.829 185.179 164.216 185.08C163.309 185.08 163.207 185.179 163.309 186.07ZM161.998 179.438C162.2 181.22 162.805 181.616 164.518 181.517L172.686 181.122C173.795 178.943 166.233 170.629 162.401 171.321C161.696 172.51 161.796 176.469 161.998 179.438ZM158.772 181.913C158.67 178.745 158.872 172.51 157.763 171.223C153.328 171.223 148.992 173.696 147.379 176.963C146.673 178.35 146.673 179.933 147.177 181.517C151.11 181.616 157.663 182.308 158.772 181.913ZM205.151 178.35C205.251 181.319 204.948 185.476 204.747 187.555C211.603 188.149 217.955 178.052 216.342 177.954C214.526 177.755 207.671 177.36 206.057 177.261C205.151 177.261 205.151 177.458 205.151 178.35ZM201.217 178.35C201.118 176.766 200.513 176.469 199 176.37C197.387 176.37 191.136 175.38 190.732 175.974C190.329 181.021 194.06 185.08 198.596 187.356C200.714 188.347 201.522 187.752 201.522 185.279L201.217 178.35ZM206.562 172.411C206.762 174.192 209.384 173.994 211.099 173.994L217.248 174.093C218.963 170.133 211.603 159.642 206.562 161.027C206.057 161.72 206.36 169.44 206.562 172.411ZM202.731 172.311C202.631 169.144 203.034 162.216 201.922 160.929C197.589 160.929 194.06 164.195 192.447 167.362C191.741 168.748 191.438 169.639 191.943 171.223C193.959 173.104 201.42 172.906 202.731 172.311ZM199.303 148.556C197.791 147.962 198.395 157.265 199.705 156.87C200.109 156.671 204.042 155.781 207.571 156.969C208.478 155.485 207.771 148.655 206.26 147.962C205.151 147.368 207.671 152.812 202.731 152.514C199.807 152.415 200.009 149.05 199.303 148.556ZM246.286 190.326C246.286 188.346 245.984 188.545 244.572 188.545C241.246 188.545 235.6 187.95 235.095 188.743C234.793 191.019 236.104 193.297 237.616 194.979C239.732 197.354 242.959 199.235 246.388 198.641C246.388 196.562 246.186 193.692 246.286 190.326ZM249.715 189.039C249.41 192.405 249.514 196.364 249.514 198.542C252.034 199.531 255.765 197.057 257.68 194.187C259.393 191.811 260.402 188.346 259.594 188.248C258.183 188.05 252.334 188.445 250.824 188.248C249.916 188.149 249.815 188.149 249.715 189.039ZM249.008 179.042C248.908 180.824 248.806 184.882 249.715 184.882L259.898 184.685C261.611 181.616 254.756 172.411 249.514 173.4C249.008 174.093 249.21 176.568 249.008 179.042ZM245.279 173.598C243.664 173.895 241.85 174.687 240.439 175.678C238.726 176.963 237.213 178.647 235.902 180.329C235.397 180.923 234.995 181.814 234.691 182.705C234.491 183.595 234.389 184.685 234.491 185.476C237.213 185.476 245.783 185.773 245.681 185.179C245.479 181.714 246.79 176.963 245.279 173.598ZM245.581 159.048C239.631 162.908 241.044 170.233 242.657 168.846C243.766 167.956 249.21 167.66 251.428 168.451C252.334 167.066 253.143 162.017 251.428 161.225C250.319 160.731 251.832 166.075 246.892 165.779C243.866 165.581 246.286 159.543 245.581 159.048ZM156.654 160.828C155.545 161.126 155.243 163.304 155.646 164.393C155.848 164.987 155.747 166.075 156.352 166.272C158.47 166.967 161.896 167.066 163.813 165.68C164.72 164.195 165.123 161.225 163.611 160.532C162.3 159.938 162.098 163.7 159.376 163.304C156.352 163.205 157.361 161.324 156.654 160.828ZM111.115 226.644C110.611 226.445 109.3 201.996 110.207 200.808C107.585 198.532 104.258 196.85 102.04 197.047C100.629 197.146 101.638 199.225 100.729 200.413C100.023 201.303 99.0157 201.996 97.8064 201.996C96.4955 201.996 93.3699 200.61 92.6643 199.521C91.2518 197.64 92.9663 194.474 94.3774 192.989C94.8826 192.494 94.3774 191.603 94.3774 191.108C92.8647 191.108 90.9498 190.909 89.2353 189.525C86.9169 187.743 85.002 184.575 83.6911 181.408C83.0857 180.121 83.4893 178.339 83.8928 176.953C84.1948 175.765 83.5895 174.379 84.6986 174.577C87.2188 174.973 89.9409 175.864 92.4625 177.052C94.3774 177.844 96.0919 178.536 97.6046 179.626C99.3177 180.814 99.8229 183.882 101.032 183.882C101.234 182.595 100.528 180.021 102.343 178.734C103.956 177.547 106.78 177.745 108.493 178.834C110.106 179.823 111.82 182.001 111.618 183.882C111.417 186.554 107.485 187.148 107.787 189.029C108.594 190.019 111.618 191.9 112.829 191.9C113.837 190.019 113.231 188.832 114.442 186.258C116.66 181.507 120.188 174.875 123.919 171.509C124.121 170.123 121.095 166.857 119.784 167.451C118.273 168.144 118.677 171.509 117.366 172.498C116.156 173.39 114.744 172.994 113.231 172.599C112.022 172.301 110.307 171.608 109.804 170.519C108.996 168.836 108.996 167.154 109.098 165.471C109.198 162.997 113.938 163.095 112.727 161.018C112.526 160.423 111.72 159.036 110.509 158.74C108.795 158.245 106.476 158.74 105.669 158.245C104.258 157.552 103.956 155.573 103.25 154.186C100.226 150.722 97.1008 149.238 98.7137 144.486C98.4104 143.695 97.3012 142.704 97.1008 141.517C96.899 140.527 97.503 139.24 98.21 139.141C100.729 138.944 100.729 141.913 102.948 143.101C106.073 143.892 108.089 145.872 109.602 147.357C110.307 148.049 112.627 147.258 113.333 147.852C114.946 149.04 115.148 151.217 116.559 152.603C117.668 153.791 118.273 156.166 119.886 155.672C120.49 154.385 120.793 151.076 123.515 151.769C125.834 151.473 127.31 151.91 128.319 153.89C129.226 155.473 130.574 158.047 129.465 159.433C128.859 160.225 125.532 160.027 125.532 160.917C126.339 162.897 127.548 163.788 129.263 164.283C130.674 163.689 131.279 162.106 132.892 160.423C136.018 156.563 139.244 154.583 141.26 152.305C141.26 150.524 138.84 148.446 137.429 148.446C135.916 148.545 133.901 150.764 132.388 151.061C130.07 151.358 128.557 150.467 126.641 149.082C125.634 148.389 125.128 147.556 125.128 146.367C125.23 145.179 125.028 144.388 125.633 143.397C126.439 142.21 129.968 141.022 129.364 139.735C129.163 139.437 124.625 138.251 123.213 136.666C121.601 134.885 118.979 131.421 118.575 129.739C117.971 127.56 117.266 124.195 119.18 122.908C121.197 121.522 124.826 122.809 126.943 124.096C130.574 126.471 134.303 132.509 135.816 133.896C139.042 134.984 140.555 127.758 147.713 132.015C149.226 132.213 150.133 135.379 149.73 136.865C148.922 139.834 145.898 140.825 143.782 142.704C143.58 143.892 146.604 145.377 147.915 145.377C153.359 142.21 160.417 139.538 162.736 138.745C161.829 136.271 162.636 135.28 161.325 130.035C160.719 129.143 159.61 129.639 158.401 130.332C156.988 131.123 155.679 132.015 154.065 131.222C150.435 129.242 149.931 124.195 153.057 121.917C154.166 121.027 155.981 119.84 157.09 118.652C157.494 117.167 153.864 118.652 153.461 117.167C152.855 114.89 155.375 112.811 155.879 110.436C156.183 108.952 156.686 106.674 155.477 105.685C154.57 104.892 152.25 107.071 150.94 106.872C149.428 106.575 147.915 105.883 148.42 104.398C149.428 101.033 155.577 102.418 156.988 100.141C157.392 99.2504 156.586 99.4479 156.384 98.2598C155.879 96.1826 157.695 95.8849 157.494 94.0053C157.292 91.8265 156.988 88.6586 157.796 87.4719C159.006 85.7884 160.316 85.1943 162.03 86.4812C163.643 87.5706 163.643 91.1337 164.147 92.9159C165.559 95.4898 163.947 97.5683 165.257 98.8539C166.669 100.241 170.802 99.5481 172.213 100.934C173.424 102.121 173.625 103.606 172.616 104.992C171.407 106.773 168.181 105.883 166.265 106.179C165.358 107.764 167.575 110.733 168.181 112.515C168.583 113.703 168.987 116.078 170.096 116.573C171.507 117.266 174.431 115.385 175.844 116.078C178.264 117.365 179.575 118.652 179.575 121.324C179.373 125.085 175.742 126.372 174.331 126.571C174.533 128.352 171.911 129.935 169.793 129.639C169.592 131.222 170.802 136.468 172.213 137.062C177.96 134.984 188.748 132.609 196.109 133.103C196.31 133.004 196.512 132.905 196.612 132.807L196.714 127.955C196.512 127.56 196.21 127.165 195.907 126.867C194.194 125.284 191.168 128.648 189.05 127.856C184.715 126.768 185.321 121.621 186.632 119.542C187.539 118.058 189.05 116.473 189.958 115.683C191.572 114.098 192.781 116.573 193.588 114.495C194.496 112.316 191.774 106.899 191.874 104.622C191.975 103.434 192.781 100.663 192.781 100.465C192.579 99.1784 192.781 96.6045 192.277 95.4164C191.975 94.8223 191.37 94.9225 190.765 94.9225C189.354 94.7236 191.874 96.7034 190.866 97.8915C190.261 98.5844 189.252 98.1893 188.446 97.8915C187.337 97.3962 186.328 96.6045 185.926 95.8129C185.321 94.7235 184.313 93.0415 185.119 92.0523C186.328 90.5664 189.152 91.8533 190.866 91.0617C191.975 90.5664 193.689 88.3891 193.992 87.3011C194.194 86.1116 194.597 84.0344 194.294 83.0438C193.79 81.7569 192.883 81.5593 193.185 80.0748C193.387 78.9854 194.496 77.1044 195.505 75.9162C196.31 74.8283 197.319 74.5319 198.327 75.5211C199.436 76.6105 200.747 78.7879 201.049 79.976C201.352 81.4605 200.444 81.6581 200.041 82.945C199.738 83.9342 200.243 86.0142 200.545 87.1021C200.847 88.2903 202.662 90.3689 203.771 90.8642C205.484 91.557 208.913 89.9723 210.124 91.3594C211.031 92.2499 211.332 92.7452 210.829 93.9319C210.326 95.1201 209.418 95.0213 207.602 94.8223C206.091 94.6248 205.384 94.4272 203.973 94.6248C203.469 94.7236 202.864 94.6248 202.562 95.2189C202.058 96.407 202.36 99.0797 202.258 100.268C202.158 100.465 203.167 103.237 203.267 104.425C203.367 105.217 204.376 105.612 204.175 106.305C202.964 110.462 202.562 114.296 210.527 113.802C211.435 114.593 211.131 114.692 212.14 116.078C213.45 118.156 213.35 122.908 209.015 124.096C206.897 125.085 204.476 123.105 203.569 123.502C203.469 125.184 205.384 129.045 204.578 130.926C205.083 131.618 205.989 132.706 207.3 132.41C211.435 131.717 219.701 132.213 223.532 133.995C224.945 133.399 223.936 129.441 223.734 127.856C222.021 128.055 220.205 126.67 218.995 123.502C218.693 122.809 217.785 122.116 217.686 121.127C217.584 118.454 218.894 116.87 221.214 115.484C222.625 114.692 223.23 115.385 224.743 114.692C225.852 114.197 223.23 110.436 223.532 109.248C224.037 107.466 221.314 112.515 220.205 110.932C219.803 110.634 219.499 108.06 220.003 105.981C220.508 104.201 221.717 105.685 223.028 100.736C220.003 100.537 217.483 98.1624 219.499 96.9743C220.912 95.4898 225.752 96.479 227.061 95.0933C228.272 93.7076 224.743 93.3124 226.054 90.6384C226.457 88.8576 228.17 86.779 230.589 86.779C232.203 85.4921 236.135 83.7098 237.446 85.3933C238.354 86.3825 238.253 88.2635 238.151 90.4408C237.951 92.3218 239.966 93.0147 239.664 95.0933C239.06 98.1624 237.144 97.4695 237.649 98.36C239.06 99.6469 241.682 97.6671 242.791 100.934C243.293 102.32 241.682 102.221 240.169 102.616C238.958 102.914 236.842 101.923 235.934 102.813C234.32 103.408 234.725 104.694 233.514 106.773C234.019 109.149 236.538 110.634 236.035 112.91C236.135 114.495 234.623 114.791 234.12 115.78C235.127 116.275 236.943 115.089 238.052 115.88C239.564 116.87 241.075 121.324 240.773 122.414C240.471 123.701 240.573 125.184 238.857 126.372C238.052 126.867 236.238 128.253 235.431 127.856C234.22 127.264 232.807 127.264 232.607 127.56C233.011 131.421 232.707 131.816 233.211 135.973C238.354 137.755 242.891 138.944 248.537 142.011C250.353 141.913 250.048 137.558 249.646 136.271C247.226 135.973 243.395 137.755 243.193 129.639C242.486 127.165 246.017 125.977 248.033 125.679C251.259 125.085 253.779 125.878 254.787 125.878C254.888 125.778 254.081 124.096 256.199 119.74C256.703 116.177 255.896 115.88 257.812 114.593C259.829 113.208 264.467 106.972 266.584 108.259C267.089 108.654 267.391 109.645 267.593 110.831C267.693 112.416 268.398 118.849 267.996 119.641C267.895 120.235 267.189 120.928 266.383 121.621C267.089 122.908 267.491 125.679 266.987 127.165C266.08 129.739 262.652 129.935 262.449 130.233C262.35 130.728 262.449 132.015 263.056 131.916C265.274 131.916 267.189 131.916 267.895 133.598C268.6 134.489 269.105 136.37 269.206 137.459C269.306 138.745 268.398 139.933 267.391 140.724C265.576 142.111 264.467 142.804 262.149 142.507C260.636 142.309 260.132 141.22 259.325 140.428C257.914 140.527 255.494 145.179 255.494 146.961C258.921 149.04 266.08 154.78 267.391 155.672C269.105 155.078 269.709 154.088 270.516 152.108C270.516 151.217 267.291 150.426 266.685 149.733C265.476 148.347 266.318 146.919 267.126 145.336C268.133 143.257 269.709 141.87 271.928 142.069C274.046 141.673 275.659 144.784 276.364 146.07C277.977 146.466 278.079 144.684 279.186 143.497C279.49 142.605 279.49 141.417 280.195 140.428C280.7 139.636 281.508 138.944 283.019 138.646C283.726 138.053 283.926 136.766 284.53 136.073C285.943 134.587 287.959 134.192 290.177 131.816C291.487 131.024 290.177 129.935 290.985 129.143C293.907 126.372 296.731 128.549 296.731 130.629C296.931 134.291 295.521 133.302 294.512 135.183C292.898 140.626 291.891 140.428 290.076 144.388C289.37 145.872 289.168 147.753 287.858 148.643C287.052 149.04 287.152 148.841 285.438 149.336C284.328 149.733 284.732 150.128 284.431 150.722C284.328 153.592 287.959 153.692 288.161 156.067C288.363 157.85 287.757 159.433 287.052 161.116C286.345 162.601 283.119 162.997 281.708 162.601C280.095 162.204 278.381 161.116 278.381 159.829C278.381 159.137 278.481 158.343 277.877 157.751C277.27 157.453 277.07 157.256 276.364 157.948C275.255 158.938 274.247 162.7 275.86 166.164C277.373 167.749 281.103 171.509 282.715 175.666C283.019 175.864 283.926 175.765 284.934 175.666C285.639 175.469 286.547 175.27 287.454 174.973C289.874 174.083 292.496 172.301 293 171.805C293.201 169.926 290.378 170.123 289.976 167.451C289.472 163.491 294.311 160.224 298.243 162.798C300.765 164.184 299.453 168.539 299.654 169.826C306.61 165.175 306.409 168.639 308.124 167.352C309.534 166.263 311.25 165.767 313.164 164.877C314.779 163.986 316.088 164.48 317.801 163.888C321.736 162.7 322.441 163.987 320.121 166.857C319.416 167.749 318.51 168.738 317.197 169.034C316.088 172.301 311.048 174.281 309.737 174.281C308.024 175.37 307.922 176.26 304.795 176.458C303.788 176.557 302.477 177.547 303.587 178.637C304.293 179.328 305.3 180.22 306.006 181.211C307.317 183.09 306.713 184.971 305.502 186.554C303.082 189.722 297.94 190.316 296.125 184.377C295.822 183.388 296.429 182.496 296.225 181.803C296.125 181.308 295.218 180.814 293.807 180.417C293.303 180.417 291.388 181.11 288.161 182.298C287.152 182.694 286.547 183.783 286.446 184.476C285.842 189.128 289.774 187.05 289.976 201.007C290.883 201.6 292.898 203.481 293.201 205.263C293.403 206.945 291.992 209.222 291.185 209.915C291.789 215.062 290.378 230.503 289.068 233.77C288.867 234.463 288.766 235.255 289.672 235.452C291.69 235.947 293.101 237.333 294.11 236.64C294.21 235.75 294.21 231.394 295.622 230.602C297.538 229.613 301.771 229.415 303.285 230.8C305.502 232.681 300.965 237.037 301.569 238.521C301.771 238.62 302.78 239.017 303.587 238.521C304.393 237.929 304.016 237.236 305.529 236.937C307.042 236.542 311.752 237.037 313.064 237.929C316.088 240.203 315.713 238.225 319.544 240.799C320.553 241.688 318.03 242.58 316.317 242.876C315.208 243.074 314.704 247.035 310.771 246.737C309.46 246.539 311.955 246.441 310.643 246.342C310.14 246.342 307.949 246.637 307.142 246.934C305.125 247.727 306.511 246.934 305.502 246.637C304.595 246.243 304.998 245.055 304.191 244.955C302.376 244.757 300.864 245.055 300.158 245.152C299.049 245.254 301.267 248.221 301.671 249.311C302.477 251.192 301.973 251.291 302.075 253.269C302.882 262.376 302.98 260.497 299.856 269.008C297.134 276.136 287.355 288.013 279.893 291.181C268.098 296.328 249.546 294.051 239.26 293.951C235.631 293.951 231.901 295.337 229.582 298.011C226.558 301.376 222.625 323.105 222.221 325.083C217.986 324.787 184.01 323.896 179.373 324.984C178.868 322.906 175.742 301.772 172.616 298.505C170.196 295.932 168.08 293.951 164.652 292.764C162.837 292.072 161.627 292.072 159.61 292.17C149.226 292.369 141.664 292.863 131.581 290.686C124.221 289.201 115.249 286.132 109.904 280.886C107.283 278.412 105.569 275.344 104.258 272.076C100.729 263.663 97.6046 254.755 97.9066 245.647C98.0082 243.668 100.023 243.766 100.729 241.885C101.132 240.799 101.94 238.521 100.83 238.423C99.8229 238.324 100.327 239.71 97.1008 240.896C95.6883 241.492 90.8482 243.074 89.3369 243.273C88.026 243.371 87.1187 242.58 85.8077 242.876C82.6821 243.47 82.8571 243.908 79.7315 242.917C78.017 242.324 78.3204 238.96 79.7315 237.97C83.4625 235.098 86.3115 234.56 90.1427 232.582C91.5552 231.792 91.4536 230.9 92.9663 230.008C93.5717 229.613 94.6808 230.207 95.2847 229.712C96.9992 228.326 94.8826 224.762 96.4955 223.178C97.9066 221.793 101.132 221.793 103.049 222.684C104.56 223.377 104.36 226.644 105.871 227.434C107.384 228.127 109.502 227.138 111.115 226.644Z" fill="#E0C185"/>
<path fill-rule="evenodd" clip-rule="evenodd" d="M353.574 206.32L355.215 206.463C355.081 207.995 355.18 209.063 355.513 209.671C355.846 210.278 356.531 210.628 357.571 210.718L377.107 212.425C378.147 212.517 378.883 212.293 379.317 211.751C379.75 211.21 380.033 210.175 380.168 208.644L381.809 208.788L380.502 223.713L378.861 223.57C378.995 222.039 378.896 220.97 378.563 220.363C378.23 219.755 377.544 219.406 376.504 219.314L356.967 217.607C355.929 217.517 355.192 217.741 354.759 218.282C354.326 218.822 354.042 219.858 353.908 221.389L352.266 221.245L353.574 206.32Z" fill="#0A4B83"/>
<path fill-rule="evenodd" clip-rule="evenodd" d="M384.963 214.587C385.767 214.587 386.409 214.841 386.893 215.351C387.375 215.859 387.617 216.475 387.617 217.198C387.617 217.92 387.375 218.537 386.893 219.045C386.409 219.555 385.767 219.808 384.963 219.808C384.212 219.808 383.596 219.555 383.113 219.045C382.631 218.537 382.391 217.92 382.391 217.198C382.391 216.447 382.618 215.832 383.074 215.351C383.555 214.841 384.186 214.587 384.963 214.587Z" fill="#0A4B83"/>
<path fill-rule="evenodd" clip-rule="evenodd" d="M47.7536 224.379L46.1082 224.465C45.754 222.972 45.2178 221.903 44.4953 221.254C43.7446 220.578 42.445 219.904 40.5936 219.231L18.1866 211.256L18.0723 209.077L41.9172 197.277C42.9092 196.785 43.5964 196.254 43.9789 195.686C44.3613 195.115 44.525 194.296 44.4685 193.227L46.1139 193.141L46.8928 207.979L45.2474 208.065L45.1614 206.421C45.1077 205.408 44.9765 204.755 44.7691 204.464C44.5334 204.147 44.1679 204.001 43.6741 204.027C43.4271 204.039 43.183 204.093 42.9403 204.189C42.6976 204.283 42.4012 204.409 42.0527 204.566L37.4256 206.826L37.9012 215.87L41.2201 217.015C41.5842 217.133 42.0301 217.233 42.5564 217.315C43.0546 217.372 43.4807 217.391 43.8377 217.373C45.0993 217.307 45.6891 216.491 45.6073 214.93L45.5014 212.917L47.1468 212.829L47.7536 224.379ZM26.8494 212.039L35.714 215.077L35.3344 207.844L26.8494 212.039Z" fill="#0A4B83"/>
<path fill-rule="evenodd" clip-rule="evenodd" d="M18.5098 186.697L20.0832 176.778L41.2978 166.09L41.3048 166.049L26.9806 163.783C25.9773 163.625 25.2252 163.811 24.7229 164.343C24.1994 164.843 23.6956 165.917 23.2116 167.562L21.5846 167.305L23.2144 157.02L24.8428 157.278C24.8358 158.722 25.0065 159.749 25.3551 160.36C25.7036 160.969 26.3654 161.353 27.3419 161.507L50.6167 165.19L50.0114 169.011L25.983 181.129L25.9576 181.291L43.2113 184.02C44.2414 184.184 44.9963 183.983 45.4747 183.42C45.9573 182.83 46.3496 181.587 46.6501 179.689L48.2785 179.948L46.5316 190.964L44.9046 190.706C45.1445 189.189 45.1205 188.115 44.8312 187.486C44.5405 186.856 43.8815 186.46 42.85 186.298L23.4811 183.233C22.4496 183.069 21.6989 183.242 21.2304 183.752C20.7591 184.261 20.3964 185.328 20.1382 186.954L18.5098 186.697Z" fill="#0A4B83"/>
<path fill-rule="evenodd" clip-rule="evenodd" d="M25.9277 147.479L31.2984 134.198L32.8266 134.814C32.3638 135.959 32.2128 136.845 32.3737 137.473C32.5444 138.076 33.1145 138.571 34.0825 138.962L42.2571 142.261L37.6512 131.124C37.3323 130.375 36.8681 129.876 36.2557 129.629C35.8747 129.475 35.543 129.489 35.2608 129.671C34.9546 129.843 34.6526 130.299 34.3535 131.037L33.8144 132.372L32.2862 131.755L36.885 120.383L38.4132 121C38.0097 122.583 37.8093 123.701 37.8121 124.354C37.7895 124.996 37.9927 125.847 38.4231 126.908L41.6306 135.128L58.9844 132.322C60.3108 132.116 61.3395 131.112 62.0705 129.306L63.5973 129.922L58.3198 142.974L56.7929 142.357C57.0145 141.588 57.1288 141.013 57.1344 140.631C57.1514 140.223 57.0328 139.968 56.7774 139.865C56.5996 139.793 56.2779 139.782 55.8136 139.831C55.3338 139.845 53.8959 140.034 51.497 140.398C49.084 140.726 46.6471 141.074 44.1875 141.442L44.893 143.325L52.2647 146.301C53.1819 146.671 53.9185 146.717 54.4759 146.438C55.0319 146.16 55.506 145.538 55.8969 144.571L57.4251 145.188L52.2082 158.087L50.6814 157.47C51.2572 156.045 51.4745 154.993 51.3348 154.315C51.1937 153.637 50.6405 153.102 49.6725 152.712L31.4903 145.374C30.5223 144.983 29.7518 144.983 29.1789 145.372C28.606 145.763 28.0317 146.671 27.456 148.096L25.9277 147.479Z" fill="#0A4B83"/>
<path fill-rule="evenodd" clip-rule="evenodd" d="M64.2632 128.685L62.8972 127.765C63.5139 126.361 63.7298 125.182 63.5449 124.23C63.3516 123.239 62.7194 121.92 61.6455 120.269L48.5547 100.427L49.7753 98.6182L75.9274 103.532C77.0154 103.735 77.8846 103.725 78.5323 103.499C79.1814 103.275 79.8051 102.719 80.4049 101.831L81.7708 102.751L73.4537 115.07L72.0892 114.15L73.0092 112.786C73.5779 111.943 73.8672 111.344 73.8771 110.985C73.8785 110.59 73.6753 110.254 73.2646 109.978C73.06 109.841 72.8328 109.736 72.5817 109.666C72.3305 109.597 72.0186 109.519 71.6447 109.433L66.5887 108.458L61.52 115.965L63.4814 118.876C63.7001 119.189 63.9965 119.536 64.3676 119.919C64.7316 120.263 65.0604 120.536 65.3568 120.735C66.4038 121.441 67.3662 121.145 68.2411 119.848L69.37 118.176L70.7359 119.098L64.2632 128.685ZM55.0021 106.261L60.2514 114.018L64.3055 108.012L55.0021 106.261Z" fill="#0A4B83"/>
<path fill-rule="evenodd" clip-rule="evenodd" d="M98.2528 77.3597C99.7683 78.8738 100.604 80.3866 100.759 81.9007C100.914 83.4134 100.254 84.9063 98.7777 86.3824C97.282 87.8753 95.7862 88.5752 94.2918 88.4778C92.796 88.3805 91.1747 87.459 89.4263 85.7135C87.5806 83.8692 86.144 82.8419 85.1153 82.6274C84.105 82.3945 82.7362 82.928 81.0076 84.229L87.1248 90.3405C88.018 91.2337 88.8054 91.6698 89.4842 91.65C90.1643 91.6303 91.0872 91.039 92.2527 89.8749L93.4169 91.039L83.1045 101.342L81.9403 100.177C83.0269 99.0908 83.6393 98.2074 83.7748 97.5287C83.9117 96.85 83.6097 96.1416 82.8731 95.405L69.0061 81.5507C68.2667 80.8127 67.5583 80.5121 66.8782 80.649C66.1994 80.7845 65.3146 81.3955 64.2281 82.482L63.0625 81.3179L73.2592 71.1311C75.7244 68.6673 78.0457 67.2801 80.2202 66.9697C82.3961 66.6211 84.3477 67.3098 86.0763 69.0356C87.8049 70.7628 88.3581 72.6931 87.7372 74.8282C87.0965 76.942 85.804 78.9698 83.8623 80.91C85.6685 79.5723 87.28 78.9317 88.6982 78.9895C90.1347 79.029 91.7377 79.5046 93.5044 80.4162C95.2528 81.308 96.3986 81.8315 96.9433 81.9881C97.4668 82.1236 97.9042 82.0164 98.2542 81.6678C98.583 81.3376 98.6225 80.91 98.3699 80.3865C98.0976 79.8432 97.6714 79.2224 97.0886 78.5239L98.2528 77.3597ZM79.9577 83.1805C81.7259 81.4152 82.7461 79.8532 83.017 78.4943C83.3091 77.117 82.6685 75.6424 81.0951 74.0704C79.8519 72.83 78.5791 72.1414 77.2795 72.0046C75.9784 71.8296 74.8213 72.2473 73.8109 73.2562C73.2296 73.839 72.8994 74.4401 72.8217 75.061C72.7441 75.6424 73.025 76.2548 73.6656 76.8941L79.9577 83.1805Z" fill="#0A4B83"/>
<path fill-rule="evenodd" clip-rule="evenodd" d="M104.463 80.5629L103.565 79.1828C104.681 78.1315 105.342 77.1311 105.543 76.1814C105.754 75.195 105.687 73.7331 105.344 71.7956L101.055 48.4206L102.886 47.2324L125.038 61.963C125.959 62.5754 126.764 62.9056 127.448 62.9508C128.133 62.9974 128.926 62.7292 129.823 62.1465L130.72 63.5265L118.248 71.6193L117.35 70.2392L118.732 69.3417C119.585 68.7885 120.085 68.3497 120.234 68.0237C120.391 67.6611 120.335 67.273 120.065 66.8582C119.93 66.6507 119.762 66.4659 119.559 66.3036C119.354 66.1427 119.097 65.948 118.787 65.7236L114.514 62.852L106.912 67.7838L107.58 71.2284C107.659 71.6023 107.796 72.0383 107.987 72.535C108.186 72.9937 108.384 73.3732 108.579 73.6724C109.266 74.7307 110.268 74.8337 111.58 73.9828L113.273 72.8836L114.171 74.2651L104.463 80.5629ZM104.708 56.3073L106.506 65.4965L112.586 61.551L104.708 56.3073Z" fill="#0A4B83"/>
<path fill-rule="evenodd" clip-rule="evenodd" d="M150.014 26.636L150.468 28.2179C148.937 28.6567 147.934 29.1435 147.459 29.6798C146.984 30.216 146.889 30.985 147.179 31.9869L151.857 48.2881C152.342 49.9758 153.3 51.1286 154.735 51.7453C156.196 52.3549 157.639 52.4551 159.064 52.0459C163.526 50.7674 165.098 47.8337 163.78 43.2448L159.647 28.843C159.359 27.8411 158.868 27.2244 158.174 26.9958C157.48 26.7658 156.272 26.7842 154.548 27.0495L154.093 25.4676L164.112 22.5974L164.566 24.1792C163.254 24.7846 162.395 25.373 161.987 25.946C161.58 26.5189 161.513 27.2809 161.785 28.2305L165.828 42.3163C166.707 45.3756 166.46 47.9014 165.089 49.8925C163.744 51.8765 161.382 53.3511 158.002 54.3192C155.336 55.084 152.799 55.1545 150.392 54.5308C147.976 53.8817 146.372 52.1715 145.577 49.4015L141.08 33.7339C140.792 32.732 140.318 32.1252 139.657 31.915C139.024 31.6962 137.967 31.7992 136.488 32.2226L136.035 30.6407L150.014 26.636Z" fill="#0A4B83"/>
<path fill-rule="evenodd" clip-rule="evenodd" d="M169.895 21.3979L179.908 20.523L195.419 38.5034L195.461 38.5006L194.197 24.0677C194.108 23.056 193.745 22.3716 193.107 22.0132C192.495 21.6265 191.329 21.3979 189.615 21.3273L189.471 19.6876L199.854 18.7803L199.998 20.42C198.594 20.7629 197.638 21.1763 197.129 21.6618C196.62 22.1472 196.409 22.8824 196.495 23.8659L198.549 47.32L194.692 47.6572L177.11 27.2949L176.946 27.309L178.468 44.6953C178.56 45.7339 178.936 46.4169 179.599 46.7457C180.29 47.0702 181.593 47.1493 183.508 46.9813L183.65 48.621L172.529 49.5933L172.385 47.9536C173.918 47.8195 174.953 47.5359 175.495 47.1041C176.036 46.6709 176.261 45.9343 176.17 44.8957L174.461 25.3786C174.371 24.34 174.021 23.6543 173.412 23.3213C172.804 22.9896 171.68 22.8951 170.037 23.0376L169.895 21.3979Z" fill="#0A4B83"/>
<path fill-rule="evenodd" clip-rule="evenodd" d="M205.674 47.7222L205.818 46.0824C207.35 46.2165 208.42 46.1163 209.028 45.7847C209.636 45.4517 209.986 44.7659 210.076 43.7273L211.785 24.2102C211.877 23.1702 211.651 22.435 211.109 22.0018C210.569 21.5686 209.532 21.285 207.999 21.1523L208.143 19.5112L223.083 20.8179L222.939 22.4576C221.408 22.3236 220.337 22.4224 219.728 22.7554C219.12 23.0884 218.772 23.7728 218.68 24.8128L216.971 44.3299C216.881 45.3684 217.105 46.105 217.647 46.5382C218.188 46.97 219.225 47.2537 220.756 47.3877L220.613 49.0274L205.674 47.7222Z" fill="#0A4B83"/>
<path fill-rule="evenodd" clip-rule="evenodd" d="M229.023 21.2993L242.67 24.4475L242.301 26.052C240.829 25.7119 239.824 25.6074 239.286 25.7372C238.781 25.8459 238.46 26.2086 238.317 26.8224C238.249 27.1173 238.271 28.122 238.382 29.8379C238.519 31.5581 238.955 36.5026 239.69 44.6701C244.042 38.155 246.682 34.1729 247.608 32.7251C248.535 31.2787 249.05 30.3262 249.154 29.8718C249.341 29.0703 249.2 28.4593 248.732 28.043C248.271 27.5985 247.492 27.25 246.394 26.996L246.765 25.3929L255.798 27.4758L255.427 29.0802C254.432 28.9913 253.611 29.0703 252.963 29.3144C252.346 29.5374 251.761 30.0652 251.202 30.8935L237.219 52.252L233.886 51.4844L231.755 26.4922C231.64 25.2829 231.369 24.4461 230.94 23.9804C230.512 23.5162 229.749 23.1563 228.652 22.9037L229.023 21.2993Z" fill="#0A4B83"/>
<path fill-rule="evenodd" clip-rule="evenodd" d="M279.718 48.8103L278.099 48.0892C279.004 42.4843 277.198 38.6771 272.682 36.6677C271.477 36.1329 270.571 35.9396 269.963 36.0906C269.391 36.226 268.899 36.758 268.485 37.6851L265.234 44.9806C267.091 45.8061 268.532 46.1165 269.555 45.9105C270.589 45.6805 271.755 44.7872 273.049 43.2294L274.556 43.8997L269.896 54.3532L268.391 53.6829C268.66 51.7299 268.522 50.2864 267.976 49.3522C267.465 48.4054 266.295 47.5248 264.464 46.7092L260.644 55.2831C260.242 56.1848 260.188 56.9129 260.483 57.4633C260.803 58.0263 261.54 58.5654 262.694 59.079C265.154 60.1726 267.492 60.3575 269.71 59.6307C271.927 58.9054 273.918 57.404 275.686 55.1251L277.303 55.8461L272.688 65.5969L248.789 54.9656L249.459 53.4614C250.865 54.0865 251.909 54.3405 252.591 54.2248C253.275 54.1077 253.83 53.5729 254.253 52.6204L262.23 34.7218C262.655 33.7693 262.681 33.0002 262.31 32.416C261.941 31.8304 261.052 31.2251 259.648 30.6L260.318 29.0957L283.614 39.4589L279.718 48.8103Z" fill="#0A4B83"/>
<path fill-rule="evenodd" clip-rule="evenodd" d="M303.48 78.7961C302.251 80.5487 300.905 81.6338 299.44 82.0487C297.975 82.465 296.388 82.0741 294.679 80.8775C292.946 79.6653 291.998 78.3163 291.833 76.8276C291.669 75.3403 292.297 73.5834 293.714 71.5613C295.211 69.4263 295.974 67.8332 296.007 66.7833C296.061 65.749 295.297 64.4945 293.715 63.0199L288.752 70.0994C288.028 71.1338 287.735 71.9833 287.872 72.6493C288.009 73.3153 288.752 74.1197 290.103 75.0637L289.157 76.4127L277.211 68.0547L278.156 66.7057C279.416 67.5876 280.393 68.0363 281.086 68.0519C281.779 68.0688 282.425 67.6497 283.023 66.7946L294.271 50.746C294.87 49.8923 295.043 49.143 294.791 48.4967C294.539 47.8518 293.783 47.0884 292.523 46.2065L293.468 44.8589L305.281 53.1223C308.137 55.1205 309.908 57.1638 310.592 59.2494C311.313 61.3294 310.973 63.3698 309.572 65.3693C308.169 67.3703 306.362 68.2494 304.15 68.0095C301.955 67.7457 299.732 66.8271 297.482 65.2523C299.116 66.7974 300.026 68.272 300.215 69.6775C300.427 71.0985 300.236 72.7565 299.643 74.6545C299.068 76.5284 298.75 77.7476 298.692 78.3092C298.649 78.8483 298.829 79.2603 299.234 79.544C299.617 79.8107 300.044 79.7754 300.517 79.4353C301.005 79.0741 301.544 78.5463 302.131 77.852L303.48 78.7961ZM294.566 61.8063C296.614 63.2386 298.331 63.9709 299.717 64.002C301.125 64.05 302.467 63.1638 303.744 61.3421C304.752 59.9041 305.21 58.5325 305.117 57.2287C305.063 55.9192 304.452 54.8538 303.283 54.0353C302.607 53.5626 301.958 53.3425 301.331 53.3735C300.744 53.3989 300.189 53.7827 299.67 54.5236L294.566 61.8063Z" fill="#0A4B83"/>
<path fill-rule="evenodd" clip-rule="evenodd" d="M310.796 79.3606L312.055 80.6631C310.617 82.9674 309.76 85.3 309.486 87.6636C309.211 90.0258 309.904 92.0663 311.564 93.7836C312.651 94.9083 313.806 95.5503 315.026 95.7069C316.267 95.8833 317.479 95.4007 318.664 94.2563C319.81 93.15 319.823 91.2873 318.704 88.6683C317.623 86.0493 316.56 83.4684 315.517 80.927C314.698 77.8663 315.255 75.4025 317.191 73.5342C319.246 71.5515 321.515 70.6399 323.998 70.8008C326.482 70.9603 328.668 72.0172 330.557 73.9716C331.587 75.037 332.335 76.1264 332.802 77.2412C333.151 78.3531 333.52 79.4665 333.908 80.5798C334.175 80.8564 334.563 80.9397 335.07 80.8324C335.576 80.7252 335.967 80.6349 336.24 80.5615L337.442 81.8047L330.388 88.6091L329.243 87.4251C330.564 85.2365 331.311 83.1057 331.483 81.0314C331.675 78.9782 331.054 77.2115 329.623 75.7298C328.649 74.7237 327.592 74.1424 326.448 73.9871C325.325 73.8503 324.279 74.2496 323.31 75.1837C322.085 76.3663 322.295 78.8343 323.939 82.5879C325.621 86.3428 326.679 89.0789 327.115 90.7948C327.573 92.491 326.713 94.3861 324.54 96.483C322.485 98.4657 320.112 99.2884 317.417 98.9497C314.762 98.6124 312.548 97.5258 310.773 95.69C309.629 94.5061 308.747 93.277 308.127 92.0056C307.587 90.7356 307.055 89.4741 306.533 88.2224C306.342 88.0248 306.063 87.9134 305.695 87.888C305.365 87.8626 304.838 87.9317 304.117 88.0926L302.973 86.9087L310.796 79.3606Z" fill="#0A4B83"/>
<path fill-rule="evenodd" clip-rule="evenodd" d="M320.924 106.386L322.274 105.442C323.156 106.701 323.92 107.456 324.566 107.707C325.212 107.96 325.961 107.786 326.817 107.188L342.881 95.951C343.736 95.3527 344.155 94.7064 344.139 94.015C344.124 93.3221 343.674 92.347 342.792 91.0883L344.142 90.1443L352.743 102.417L351.394 103.361C350.512 102.102 349.747 101.346 349.101 101.095C348.456 100.843 347.705 101.017 346.85 101.615L330.788 112.852C329.932 113.45 329.512 114.095 329.527 114.788C329.544 115.479 329.993 116.456 330.875 117.715L329.526 118.659L320.924 106.386Z" fill="#0A4B83"/>
<path fill-rule="evenodd" clip-rule="evenodd" d="M368.864 132.75L359.902 137.301L359.071 135.599C361.127 133.926 362.513 132.197 363.231 130.412C363.949 128.627 363.827 126.749 362.863 124.776L343.015 134.448C342.079 134.903 341.569 135.488 341.487 136.199C341.42 136.934 341.777 138.104 342.558 139.707L341.078 140.429L334.035 126.001L335.515 125.28C336.31 126.907 337.018 127.92 337.641 128.319C338.263 128.717 339.043 128.689 339.982 128.232L359.829 118.561C358.878 116.613 357.46 115.365 355.573 114.819C353.723 114.286 351.519 114.307 348.958 114.883L348.127 113.181L357.234 108.926L368.864 132.75Z" fill="#0A4B83"/>
<path fill-rule="evenodd" clip-rule="evenodd" d="M369.016 168.336L368.558 166.625C373.487 163.8 375.313 160.003 374.033 155.231C373.691 153.959 373.271 153.134 372.771 152.757C372.306 152.398 371.582 152.351 370.601 152.613L362.881 154.68C363.406 156.642 364.072 157.955 364.875 158.62C365.706 159.278 367.134 159.621 369.16 159.646L369.587 161.236L358.523 164.198L358.097 162.608C359.785 161.588 360.821 160.572 361.205 159.56C361.619 158.568 361.569 157.105 361.051 155.17L351.977 157.598C351.022 157.854 350.422 158.27 350.18 158.847C349.942 159.45 349.988 160.361 350.315 161.581C351.012 164.178 352.34 166.109 354.3 167.375C356.26 168.639 358.681 169.24 361.566 169.179L362.024 170.89L351.534 173.441L344.764 148.195L346.355 147.769C346.753 149.253 347.213 150.224 347.733 150.681C348.253 151.138 349.018 151.231 350.026 150.962L368.968 145.892C369.977 145.621 370.593 145.158 370.814 144.502C371.036 143.846 370.948 142.776 370.55 141.292L372.142 140.865L378.742 165.477L369.016 168.336Z" fill="#0A4B83"/>
<path fill-rule="evenodd" clip-rule="evenodd" d="M363.241 179.106L363.368 180.913C360.784 181.754 358.627 182.991 356.897 184.624C355.165 186.258 354.384 188.266 354.552 190.648C354.66 192.207 355.132 193.441 355.966 194.345C356.802 195.276 358.043 195.684 359.687 195.57C361.276 195.458 362.483 194.04 363.312 191.314C364.168 188.613 365.015 185.955 365.85 183.338C367.192 180.467 369.205 178.937 371.89 178.749C374.739 178.551 377.063 179.31 378.864 181.027C380.663 182.744 381.658 184.957 381.847 187.668C381.951 189.145 381.823 190.462 381.463 191.615C381.014 192.691 380.582 193.781 380.163 194.883C380.19 195.265 380.433 195.578 380.89 195.821C381.347 196.065 381.704 196.246 381.96 196.366L382.081 198.09L372.301 198.773L372.185 197.131C374.605 196.302 376.548 195.148 378.013 193.671C379.482 192.22 380.143 190.469 380 188.416C379.902 187.02 379.465 185.895 378.69 185.042C377.915 184.215 376.858 183.849 375.515 183.942C373.816 184.061 372.389 186.086 371.232 190.019C370.106 193.975 369.157 196.751 368.388 198.346C367.645 199.937 365.769 200.839 362.754 201.049C359.905 201.248 357.557 200.354 355.71 198.365C353.894 196.401 352.896 194.146 352.719 191.6C352.604 189.958 352.719 188.451 353.063 187.079C353.465 185.758 353.87 184.45 354.274 183.158C354.255 182.883 354.113 182.619 353.847 182.362C353.61 182.131 353.164 181.845 352.507 181.507L352.393 179.864L363.241 179.106Z" fill="#0A4B83"/>
<path fill-rule="evenodd" clip-rule="evenodd" d="M216.135 13.2275C216.939 13.2275 217.581 13.483 218.065 13.991C218.547 14.499 218.789 15.1156 218.789 15.8395C218.789 16.562 218.547 17.1772 218.065 17.6867C217.581 18.1961 216.939 18.45 216.135 18.45C215.384 18.45 214.768 18.1961 214.285 17.6867C213.802 17.1772 213.562 16.562 213.562 15.8395C213.562 15.0888 213.79 14.4736 214.245 13.991C214.728 13.483 215.357 13.2275 216.135 13.2275Z" fill="#0A4B83"/>
<path fill-rule="evenodd" clip-rule="evenodd" d="M145.489 20.6303C146.293 20.6585 146.927 20.9351 147.391 21.46C147.855 21.9849 148.076 22.6101 148.05 23.3325C148.025 24.055 147.762 24.6618 147.263 25.1528C146.762 25.6453 146.11 25.8768 145.307 25.8485C144.558 25.8231 143.949 25.548 143.485 25.0216C143.021 24.4967 142.801 23.8716 142.826 23.1505C142.853 22.3998 143.101 21.793 143.574 21.3273C144.074 20.8363 144.713 20.6034 145.489 20.6303Z" fill="#0A4B83"/>
<path fill-rule="evenodd" clip-rule="evenodd" d="M154.21 18.3287C155.013 18.3555 155.646 18.6321 156.112 19.1585C156.576 19.6834 156.796 20.3071 156.771 21.0296C156.745 21.7521 156.482 22.3589 155.982 22.8513C155.482 23.3424 154.831 23.5752 154.026 23.547C153.277 23.5202 152.67 23.245 152.204 22.7187C151.74 22.1938 151.522 21.57 151.547 20.8475C151.572 20.0982 151.822 19.4915 152.295 19.0244C152.794 18.5333 153.432 18.3005 154.21 18.3287Z" fill="#0A4B83"/>
<path fill-rule="evenodd" clip-rule="evenodd" d="M351.781 91.2705C352.586 91.2705 353.229 91.5245 353.712 92.0325C354.194 92.5419 354.436 93.1572 354.436 93.8811C354.436 94.6036 354.194 95.2188 353.712 95.7282C353.229 96.2376 352.586 96.4916 351.781 96.4916C351.032 96.4916 350.415 96.2376 349.933 95.7282C349.45 95.2188 349.209 94.6036 349.209 93.8811C349.209 93.1304 349.436 92.5151 349.892 92.0325C350.375 91.5245 351.005 91.2705 351.781 91.2705Z" fill="#0A4B83"/>
<path fill-rule="evenodd" clip-rule="evenodd" d="M145.895 373.69L146.316 372.113C148.577 372.718 150.057 372.876 150.756 372.584C151.487 372.272 152.04 371.42 152.412 370.027L156.766 353.779C156.999 352.912 156.896 352.292 156.461 351.922C156.031 351.526 154.871 351.073 152.977 350.566L153.464 348.753C155.514 349.302 157.095 349.556 158.204 349.515C159.314 349.474 160.587 349.196 162.021 348.678L164.466 349.334L158.486 371.654C158.119 373.021 158.175 374.022 158.652 374.657C159.131 375.293 160.474 375.906 162.682 376.498L162.259 378.074L145.895 373.69Z" fill="#0A4B83"/>
<path fill-rule="evenodd" clip-rule="evenodd" d="M185.957 353.976C189.211 354.259 191.604 355.78 193.14 358.538C194.702 361.298 195.318 364.548 194.992 368.29C194.606 372.71 193.21 376.316 190.807 379.112C188.433 381.882 185.105 383.08 180.822 382.704C178.869 382.534 177.322 381.948 176.181 380.946C175.038 379.944 174.53 378.726 174.655 377.289C174.739 376.34 175.106 375.58 175.757 375.008C176.408 374.437 177.235 374.195 178.238 374.283C178.997 374.349 179.651 374.692 180.197 375.314C180.774 375.911 181.029 376.576 180.964 377.308C180.877 378.312 180.555 379.02 180.001 379.436C179.448 379.826 178.695 379.978 177.747 379.895C178.025 380.166 178.439 380.42 178.992 380.66C179.575 380.874 180.15 381.007 180.719 381.056C182.943 381.251 184.585 380.74 185.648 379.521C186.742 378.278 187.386 376.517 187.587 374.239L187.917 370.457C186.596 371.818 184.931 372.41 182.926 372.234C180.567 372.028 178.686 371.043 177.283 369.281C175.908 367.494 175.324 365.421 175.532 363.063C175.779 360.242 176.865 357.961 178.794 356.218C180.723 354.474 183.111 353.726 185.957 353.976ZM184.35 370.473C185.408 370.566 186.308 370.098 187.055 369.07C187.8 368.043 188.254 366.608 188.415 364.764C188.709 361.401 188.668 359.061 188.291 357.745C187.941 356.43 187.171 355.721 185.977 355.617C184.866 355.519 184.059 356.008 183.554 357.084C183.05 358.161 182.69 359.932 182.474 362.399C182.22 365.301 182.26 367.353 182.591 368.557C182.923 369.762 183.509 370.4 184.35 370.473Z" fill="#0A4B83"/>
<path fill-rule="evenodd" clip-rule="evenodd" d="M211.878 383.073L211.736 381.446C213.634 381.281 214.82 380.945 215.295 380.439C215.796 379.904 215.982 378.916 215.856 377.479L215.685 375.528L205.355 376.431L205.297 373.895L216.871 353.949L220.084 353.668L221.742 372.621L226.379 372.215L226.585 374.574L221.948 374.979L222.119 376.932C222.243 378.342 222.569 379.27 223.101 379.715C223.631 380.161 224.71 380.312 226.337 380.169L226.479 381.796L211.878 383.073ZM215.479 373.169L214.504 362.025L207.508 373.866L215.479 373.169Z" fill="#0A4B83"/>
<path fill-rule="evenodd" clip-rule="evenodd" d="M244.765 350.638C243.873 350.257 242.955 350.193 242.008 350.447C239.958 350.996 238.734 352.268 238.339 354.262C237.971 356.249 238.278 359.082 239.265 362.764C239.64 361.958 240.213 361.255 240.982 360.654C241.771 360.021 242.637 359.577 243.584 359.323C245.897 358.704 248.001 358.985 249.896 360.169C251.791 361.351 253.048 363.1 253.669 365.412C254.416 368.199 254.204 370.721 253.033 372.98C251.863 375.238 249.833 376.753 246.941 377.528C243.653 378.409 240.823 377.885 238.446 375.958C236.09 373.998 234.394 371.085 233.358 367.22C232.273 363.172 232.446 359.349 233.879 355.753C235.336 352.151 237.708 349.908 240.995 349.028C242.835 348.534 244.463 348.564 245.879 349.114C247.294 349.664 248.189 350.637 248.561 352.031C248.808 352.949 248.723 353.79 248.307 354.55C247.891 355.309 247.195 355.82 246.223 356.081C245.486 356.277 244.746 356.195 244 355.831C243.274 355.433 242.817 354.88 242.626 354.17C242.365 353.198 242.429 352.434 242.815 351.88C243.195 351.298 243.845 350.885 244.765 350.638ZM242.808 361.475C241.52 361.821 240.756 362.702 240.515 364.118C240.295 365.503 240.452 367.193 240.988 369.191C241.762 372.083 242.512 374.037 243.234 375.056C243.951 376.046 244.928 376.377 246.164 376.047C247.346 375.729 248.001 374.963 248.125 373.745C248.242 372.502 247.96 370.605 247.277 368.055C246.543 365.321 245.852 363.478 245.203 362.525C244.579 361.564 243.78 361.214 242.808 361.475Z" fill="#0A4B83"/>
</svg>
