<svg width="400" height="400" viewBox="0 0 400 400" fill="none" xmlns="http://www.w3.org/2000/svg">
<path d="M397.169 199.989C397.169 91.0999 308.887 2.82437 200.043 2.82437C91.0852 2.82437 2.81347 91.0999 2.81347 199.989C2.81347 308.894 91.0852 397.154 200.043 397.154C308.887 397.154 397.169 308.894 397.169 199.989ZM200.043 400C89.5214 400 0 310.45 0 199.989C0 89.5281 89.5214 1.96061e-05 200.043 1.96061e-05C310.463 1.96061e-05 400 89.5281 400 199.989C400 310.45 310.463 400 200.043 400ZM359.318 270.517C359.851 273.657 357.764 276.664 354.608 277.184C351.459 277.716 348.484 275.668 347.956 272.485C347.374 269.343 349.477 266.352 352.665 265.822C355.8 265.242 358.796 267.376 359.318 270.517ZM51.4725 274.356C49.9348 277.152 46.4154 278.172 43.6119 276.612C40.8364 275.078 39.8386 271.541 41.4023 268.769C42.9401 265.983 46.3734 264.947 49.2349 266.503C52.0064 268.018 53.0682 271.541 51.4725 274.356ZM262.915 361.037C263.629 363.241 263.539 365.427 262.529 367.593C261.564 369.753 259.598 371.335 256.609 372.305C252.957 373.527 250.01 373.168 247.802 371.243C246.602 370.219 245.619 368.687 244.883 366.644L249.864 365.02C250.238 366.044 250.676 366.826 251.236 367.405C252.279 368.444 253.585 368.719 255.221 368.183C256.235 367.834 256.986 367.218 257.506 366.268C258.028 365.341 258.06 364.233 257.644 362.94C257.078 361.23 256.021 360.331 254.451 360.222C253.543 360.154 252.279 360.389 250.592 360.947L249.358 357.312C251.008 356.739 252.101 356.181 252.657 355.672C253.639 354.798 253.869 353.592 253.329 352.064C253.015 351.073 252.459 350.366 251.695 349.937C250.938 349.509 250.01 349.471 248.968 349.83C247.744 350.222 246.986 350.89 246.692 351.833C246.362 352.789 246.43 353.913 246.874 355.168L242.117 356.739C241.723 355.453 241.577 354.134 241.577 352.847C241.663 351.685 242.005 350.533 242.613 349.385C243.079 348.57 243.703 347.835 244.531 347.202C245.353 346.582 246.42 346.066 247.728 345.607C250.238 344.792 252.443 344.792 254.371 345.552C256.305 346.345 257.644 347.819 258.376 349.963C258.868 351.496 258.844 352.921 258.274 354.294C257.916 355.136 257.474 355.784 256.922 356.224C257.394 356.069 258.184 356.246 259.336 356.739C260.998 357.516 262.231 358.948 262.915 361.037ZM221.449 374.358C220.823 375.328 219.959 375.874 218.762 376.002C217.544 376.133 216.52 375.783 215.612 374.946C214.732 374.095 214.228 372.937 214.068 371.463C213.886 369.673 214.272 368.312 215.212 367.384C215.878 366.752 216.648 366.397 217.544 366.296C218.688 366.168 219.685 366.489 220.551 367.272C221.411 368.017 221.923 369.195 222.089 370.777C222.249 372.23 222.019 373.403 221.449 374.358ZM224.47 363.729C222.795 362.26 220.727 361.659 218.288 361.9C217.176 362.007 216.178 362.302 215.356 362.741C214.528 363.209 213.79 363.878 213.247 364.699C213.163 362.613 213.275 360.995 213.529 359.863C214.1 357.831 215.212 356.739 216.98 356.563C218.116 356.438 219.017 356.766 219.697 357.57C220.081 358.036 220.327 358.514 220.353 358.948L225.666 358.406C225.254 356.256 224.257 354.616 222.607 353.502C220.941 352.359 218.892 351.93 216.354 352.189C214.602 352.359 213.163 352.921 211.977 353.871C210.797 354.782 209.899 355.941 209.257 357.34C208.521 358.958 208.147 360.957 208.074 363.338C208.02 364.65 208.104 366.313 208.329 368.402C208.691 371.935 209.631 374.759 211.127 376.861C213.065 379.561 215.724 380.709 219.145 380.356C222.345 380.029 224.572 378.828 225.896 376.717C227.188 374.615 227.706 372.282 227.46 369.769C227.188 367.218 226.184 365.202 224.47 363.729ZM185.952 360.389C185.844 361.38 185.438 362.163 184.772 362.705C184.116 363.273 183.234 363.498 182.14 363.39C181.073 363.273 180.261 362.86 179.731 362.163C179.203 361.477 178.973 360.642 179.063 359.644C179.203 358.582 179.599 357.763 180.261 357.231C180.943 356.691 181.814 356.476 182.892 356.589C183.97 356.707 184.772 357.115 185.312 357.763C185.844 358.438 186.058 359.333 185.952 360.389ZM185.2 372.122C185.06 373.435 184.59 374.47 183.822 375.113C183.052 375.783 182.054 376.046 180.853 375.928C179.599 375.793 178.673 375.301 178.075 374.491C177.467 373.714 177.211 372.604 177.349 371.281C177.521 369.888 177.973 368.868 178.743 368.242C179.543 367.593 180.571 367.336 181.712 367.459C182.918 367.593 183.842 368.059 184.462 368.842C185.114 369.635 185.36 370.739 185.2 372.122ZM183.336 352.285C180.619 352 178.433 352.462 176.799 353.704C175.156 354.933 174.216 356.535 174.028 358.514C173.944 359.413 174.028 360.357 174.306 361.419C174.626 362.485 175.358 363.53 176.581 364.532C175.176 365.036 174.05 365.845 173.238 367.025C172.436 368.183 171.94 369.528 171.764 371.056C171.524 373.334 172.096 375.37 173.516 377.144C174.898 378.903 177.093 379.953 180.143 380.292C183.174 380.613 185.668 380.055 187.495 378.63C189.363 377.198 190.411 375.344 190.667 373.061C190.843 371.544 190.645 370.123 190.117 368.8C189.519 367.503 188.649 366.397 187.403 365.53C188.775 364.897 189.733 364.108 190.213 363.129C190.731 362.163 190.999 361.214 191.095 360.331C191.355 358.351 190.785 356.599 189.427 355.045C188.067 353.502 186.058 352.564 183.336 352.285ZM151.016 345.332L155.261 346.747L146.643 372.68L141.442 370.944L147.385 353.036L141.282 351.031L142.458 347.546C144.073 348.03 145.207 348.303 145.901 348.351C146.995 348.473 147.993 348.303 148.858 347.835C149.446 347.514 150.006 346.984 150.476 346.303C150.744 345.864 150.94 345.552 151.016 345.332ZM383.105 243.555L381.913 248.256L377.626 247.174L378.834 242.489L383.105 243.555ZM349.433 234.648L375.928 241.288L374.563 246.788L348.026 240.162L349.433 234.648ZM376.014 215.875C376.142 214.376 375.972 213.143 375.459 212.188C374.947 211.25 374.135 210.746 373.109 210.624C372.137 210.538 371.331 210.907 370.813 211.738C370.413 212.28 369.944 213.464 369.336 215.265L367.764 219.938C367.124 221.992 366.274 223.503 365.346 224.469C363.921 225.974 362.009 226.607 359.573 226.398C357.096 226.167 355.116 225.015 353.647 222.941C352.173 220.865 351.601 218.063 351.929 214.568C352.259 210.977 353.339 208.217 355.132 206.33C356.958 204.417 359.248 203.602 362.095 203.853L361.603 209.315C360.321 209.353 359.376 209.61 358.692 210.06C357.508 210.907 356.798 212.483 356.546 214.761C356.456 216.122 356.504 217.258 356.712 218.15C357.122 219.8 358.122 220.711 359.675 220.865C360.555 220.958 361.289 220.609 361.859 219.87C362.393 219.119 362.911 217.891 363.477 216.208L364.407 213.304C365.292 210.489 366.188 208.532 367.038 207.563C368.426 205.826 370.519 205.076 373.167 205.306C375.619 205.537 377.558 206.603 379.004 208.57C380.462 210.528 381.028 213.211 380.702 216.696C380.462 219.597 379.464 222.014 377.75 223.927C376.056 225.82 373.719 226.699 370.829 226.564L371.325 221.08C372.993 221.124 374.193 220.508 375.001 219.215C375.561 218.336 375.912 217.232 376.014 215.875ZM351.427 173.956L378.576 171.033L380.73 190.978L375.912 191.482L374.375 177.113L368.608 177.707L370.046 190.936L365.292 191.44L363.883 178.233L356.914 178.982L358.534 194.039L353.611 194.553L351.427 173.956ZM368.822 150.66L347.332 157.345L345.616 151.845L367.14 145.176L364.689 137.319L369.308 135.888L375.886 157.034L371.257 158.481L368.822 150.66ZM336.962 130.972L361.603 119.101L364.065 124.209L339.433 136.103L336.962 130.972ZM366.67 122.531L364.577 118.167L368.534 116.254L370.631 120.616L366.67 122.531ZM328.371 106.155C327.997 107.56 328.455 109.222 329.781 111.097C330.561 112.239 331.313 113.103 332.011 113.622C333.368 114.646 334.746 114.7 336.016 113.841C336.786 113.321 337.128 112.615 337.058 111.655C337.026 110.728 336.658 109.447 335.98 107.807L334.836 105.013C333.71 102.249 333.144 100.195 333.17 98.8764C333.144 96.6583 334.234 94.7553 336.46 93.2377C338.467 91.8547 340.673 91.4371 343.037 91.9892C345.376 92.5572 347.544 94.2936 349.509 97.1782C351.175 99.579 351.961 102.066 351.885 104.623C351.767 107.175 350.561 109.339 348.238 111.065L345.092 106.52C346.402 105.517 346.968 104.252 346.734 102.731C346.588 101.729 346.146 100.629 345.376 99.5368C344.576 98.2822 343.598 97.4672 342.585 97.0658C341.617 96.6583 340.673 96.7546 339.775 97.3649C338.969 97.9109 338.649 98.6837 338.723 99.7014C338.793 100.366 339.177 101.562 339.865 103.341L341.655 107.93C342.429 109.935 342.799 111.633 342.713 112.936C342.585 115.016 341.517 116.752 339.509 118.129C337.442 119.534 335.19 119.936 332.712 119.293C330.261 118.619 328.023 116.864 326.048 113.938C324.008 110.975 323.056 108.193 323.24 105.549C323.42 102.929 324.666 100.828 326.998 99.2136L330.089 103.69C329.149 104.553 328.595 105.368 328.371 106.155ZM317.697 69.1916L322.288 73.5235C323.1 74.3385 323.65 75.0611 323.842 75.7055C324.206 76.8416 323.838 78.0099 322.684 79.2003C321.643 80.2923 320.517 80.6797 319.369 80.2923C318.743 80.1216 317.979 79.5696 317.083 78.7326L312.624 74.5051L317.697 69.1916ZM302.1 85.5295L309.527 77.763L313.554 81.6232C314.68 82.7152 315.29 83.6807 315.29 84.4857C315.332 85.3368 314.75 86.3706 313.554 87.6533L311.802 89.5181C311.278 90.0862 310.767 90.7446 310.383 91.3889C310.169 91.684 309.923 92.1337 309.623 92.7118L314.2 97.0497L314.664 96.5599C314.51 95.9236 314.612 95.3073 314.99 94.6911C315.22 94.2936 315.76 93.6553 316.613 92.7499L317.909 91.4311C319.213 90.032 319.993 88.8316 320.281 87.7817C320.521 86.758 320.393 85.6218 319.839 84.3773C321.259 85.0417 322.684 85.138 324.008 84.6884C325.36 84.2428 326.486 83.5302 327.339 82.6148C328.125 81.8099 328.653 81.0069 328.963 80.1859C329.321 79.3227 329.539 78.4335 329.567 77.5643C329.647 76.4723 329.465 75.4365 329.053 74.4188C328.595 73.395 327.745 72.2308 326.4 70.9079L316.959 61.8808L298.075 81.6714L302.1 85.5295ZM272.632 64.6309L287.069 41.3897L304.108 51.9645L301.55 56.0715L289.252 48.4376L286.189 53.3696L297.455 60.3913L294.981 64.4221L283.686 57.4104L279.984 63.3984L292.816 71.3636L290.236 75.5288L272.632 64.6309ZM255.951 57.1956L250.88 55.2947L251.761 26.473L257.43 28.5747L255.797 50.1157L268.616 32.744L274.195 34.7915L255.951 57.1956ZM233.403 50.3144L227.834 49.1883L233.275 22.378L238.834 23.5242L233.403 50.3144ZM239.068 20.4369L234.327 19.4573L235.208 15.1315L239.94 16.1071L239.068 20.4369ZM200.607 46.5948L195.312 46.3961L196.368 19.0699L202.355 19.3068L212.451 38.7842L213.205 19.7243L218.544 19.9552L217.46 47.2813L211.751 47.0444L201.383 27.2077L200.607 46.5948ZM161.154 40.4463L158.289 23.8775L164.018 22.8698L166.879 39.4386C167.183 41.2833 167.665 42.5961 168.235 43.373C169.185 44.75 170.788 45.2539 173.09 44.8745C175.358 44.461 176.683 43.4633 177.093 41.8354C177.397 40.9019 177.397 39.5128 177.039 37.6641L174.178 21.1234L179.917 20.1057L182.806 36.6624C183.288 39.547 183.224 41.8614 182.608 43.6038C181.466 46.8256 178.545 48.829 173.906 49.64C169.251 50.4489 165.817 49.5215 163.66 46.8939C162.48 45.4626 161.658 43.3027 161.154 40.4463ZM162.65 20.5333L161.882 16.2074L166.665 15.3723L167.407 19.6982L162.65 20.5333ZM169.955 19.2746L169.219 14.9327L173.976 14.1238L174.734 18.4436L169.955 19.2746ZM120.32 37.8407L125.413 35.3917L137.139 60.1184L131.982 62.5573L120.32 37.8407ZM119.39 34.8457L117.494 30.8732L121.893 28.8257L123.753 32.7862L119.39 34.8457ZM95.7303 69.3381C92.9968 65.3876 91.971 61.65 92.5809 58.0869C93.1248 54.9835 94.7805 52.4482 97.6099 50.5553C101.333 47.9457 104.963 47.3014 108.396 48.6041C110.318 49.3388 111.803 50.3887 112.823 51.7457L108.14 54.9835C107.082 54.1083 106.148 53.5623 105.289 53.3315C103.767 52.936 102.197 53.2994 100.563 54.4355C98.8537 55.5717 98.0279 57.1956 97.9999 59.2331C97.9999 61.2806 98.8497 63.575 100.579 66.1003C102.325 68.6075 104.141 70.1632 106.02 70.7152C107.92 71.2933 109.652 71.0042 111.199 69.9263C112.823 68.8062 113.699 67.4231 113.805 65.757C113.881 64.8557 113.649 63.7256 113.181 62.3525L117.852 59.1207C119.118 61.8447 119.466 64.5667 118.882 67.2465C118.264 69.9323 116.81 72.0701 114.489 73.678L114.495 75.7055C114.777 75.3783 114.991 75.1856 115.103 75.0511C115.235 74.9226 115.387 74.8042 115.535 74.7179C116.368 74.1458 117.142 73.8888 117.922 73.9531C118.68 74.0053 119.322 74.4288 119.85 75.1856C120.516 76.113 120.628 77.1207 120.244 78.1926C119.85 79.2525 119.032 80.212 117.852 81.0551C117.33 81.3863 116.624 81.7135 115.733 82.0146C115.321 82.137 114.749 82.3036 113.997 82.5064L113.667 80.7961C114.365 80.5874 114.831 80.3906 115.087 80.2923C115.663 80.0835 116.101 79.8808 116.426 79.666C117.03 79.2525 117.382 78.8189 117.458 78.3853C117.538 77.9296 117.494 77.5643 117.296 77.2692C117.03 76.8517 116.624 76.659 116.24 76.7011C115.829 76.7011 115.435 76.8416 115.103 77.0665C114.905 77.205 114.691 77.3716 114.559 77.5643C114.383 77.753 114.169 77.9678 113.997 78.2026L112.913 78.0481L112.807 74.8323C110.404 76.4723 107.622 76.8798 104.323 76.0427C101.113 75.1956 98.2418 72.9714 95.7303 69.3381ZM73.2145 71.2933L77.3317 67.3549L96.2062 87.1494L92.101 91.0678L73.2145 71.2933ZM71.4468 68.7379L68.3714 65.5523L71.8747 62.1919L74.9381 65.3877L71.4468 68.7379ZM54.9638 100.105L51.1365 97.1079L63.8822 80.77L67.5115 83.5844L72.9525 105.786L81.6829 94.5947L85.4742 97.5576L72.4986 114.197L68.7073 111.254L63.3583 89.3194L54.9638 100.105ZM51.9484 130.153L43.9019 122.16L55.0658 123.866L51.9484 130.153ZM65.7938 125.506L68.5853 119.958L39.7846 116.421L36.8912 122.198L57.0035 143.157L59.689 137.785L55.4777 133.626L59.9769 124.615L65.7938 125.506ZM19.3824 160.024C18.2286 160.898 16.7329 161.161 14.8393 160.86L15.4252 158.437C16.5789 158.535 17.5128 158.154 18.1287 157.248C18.4966 156.765 18.7745 156.106 18.9565 155.301C19.1524 154.492 19.2225 153.754 19.1325 153.141C18.9705 152.075 18.3566 151.325 17.3048 150.869L17.9187 148.442C19.7084 149.058 20.9361 150.002 21.508 151.286C22.1219 152.563 22.2279 154.129 21.764 155.982C21.2941 157.826 20.5102 159.193 19.3824 160.024ZM39.7846 147.926L54.014 151.415L53.1182 155.121L49.6848 154.846C50.6866 156.235 51.3185 157.413 51.6324 158.395C52.1603 160.063 52.1603 161.976 51.6444 164.142C50.7786 167.662 48.857 170.246 45.8655 171.88C42.8541 173.602 39.1967 173.956 34.9675 172.904C30.6383 171.88 27.4989 169.832 25.4793 166.821C23.4677 163.834 22.9598 160.384 23.9096 156.475C24.7374 153.099 26.2591 150.618 28.4687 148.988C30.6803 147.342 33.1159 146.71 35.7534 147.037L34.3976 152.509C32.486 152.489 30.9483 153.195 29.8525 154.643C29.2286 155.452 28.7587 156.423 28.4967 157.553C27.9728 159.671 28.3407 161.626 29.6225 163.417C30.8943 165.175 33.1739 166.472 36.4053 167.249C39.6567 168.054 42.1342 167.871 43.8699 166.719C45.5876 165.555 46.6714 164.027 47.1413 162.142C47.6132 160.281 47.4472 158.631 46.6714 157.168C45.9095 155.721 44.6697 154.643 42.9721 153.94L41.5043 160.063L37.0772 158.985L39.7846 147.926ZM25.9652 191.789C27.6849 190.48 30.0505 189.858 33.1159 189.902C36.2173 189.96 38.5989 190.647 40.1966 192.002C41.8343 193.365 42.6841 195.169 42.6421 197.444C42.5981 199.71 41.7183 201.494 40.0506 202.803C38.3329 204.148 35.9773 204.775 32.8739 204.716C29.8005 204.668 27.4549 203.962 25.7792 202.588C24.1555 201.205 23.3377 199.411 23.3877 197.137C23.4297 194.86 24.2835 193.074 25.9652 191.789ZM32.8279 210.387C37.713 210.489 41.4703 209.155 44.1518 206.443C46.2874 204.389 47.4472 201.442 47.4572 197.512C47.5312 193.616 46.5334 190.609 44.4138 188.507C41.8343 185.715 38.1409 184.257 33.2338 184.203C28.2308 184.113 24.4455 185.436 21.876 188.121C19.7404 190.169 18.6146 193.134 18.5286 197.046C18.4966 200.965 19.4944 203.962 21.588 206.057C24.0536 208.87 27.7969 210.345 32.8279 210.387ZM39.1648 238.775L37.761 232.209C37.5631 231.051 37.5411 230.123 37.713 229.421C37.975 228.166 38.8008 227.422 40.1966 227.122C41.8343 226.795 43.1 227.142 43.9019 228.198C44.3498 228.778 44.6957 229.646 44.9797 230.81L46.2874 237.328L39.1648 238.775ZM28.8167 240.929L27.6169 235.098C27.327 233.811 27.243 232.733 27.3689 231.85C27.5629 230.81 28.2988 230.156 29.5385 229.893C30.6643 229.658 31.5342 229.887 32.1281 230.503C32.7259 231.137 33.1479 232.026 33.3718 233.201L34.7076 239.707L28.8167 240.929ZM49.5768 229.626C49.2789 228.253 48.883 227.03 48.3971 225.922C47.9271 224.806 47.2493 223.885 46.4374 223.172C45.6956 222.518 44.8517 222.036 43.9539 221.713C42.5121 221.173 41.0084 221.08 39.4107 221.397C37.873 221.713 36.6352 222.329 35.7374 223.24C34.7656 224.158 34.1837 225.348 33.9697 226.837C33.3298 226.028 32.6999 225.47 32.0321 225.117C30.8783 224.469 29.4686 224.334 27.8449 224.7C26.2591 225.015 24.9674 225.717 24.0016 226.747C22.4579 228.499 21.9459 231.029 22.5698 234.309L25.2773 247.228L52.0344 241.712L49.5768 229.626ZM200.043 336.782C124.437 336.782 63.2303 275.534 63.2303 199.989C63.2303 124.47 124.437 63.2057 200.043 63.2057C275.579 63.2057 336.786 124.47 336.786 199.989C336.786 275.534 275.579 336.782 200.043 336.782ZM200.043 60.3813C122.897 60.3813 60.3668 122.894 60.3668 199.989C60.3668 277.1 122.897 339.625 200.043 339.609C277.123 339.609 339.653 277.1 339.653 199.989C339.653 122.894 277.123 60.3813 200.043 60.3813Z" fill="#1F357A"/>
<path d="M200.041 79.1171L79.1074 199.992H121.268C121.268 235.711 150.244 264.645 185.956 264.661C221.675 264.645 250.628 235.711 250.628 199.992H149.39C149.39 164.289 178.379 135.329 214.1 135.329C249.826 135.329 278.78 164.289 278.78 199.992H320.915L200.041 79.1171Z" fill="#1F357A"/>
<path d="M278.782 199.99C278.782 164.291 249.826 135.331 214.1 135.331C178.385 135.331 149.392 164.291 149.392 199.99H250.634C250.634 235.709 221.677 264.649 185.956 264.649C150.246 264.649 121.27 235.693 121.27 199.99H79.1094L200.041 320.891L320.917 199.99H278.782Z" fill="#00ADEF"/>
</svg>
