<svg width="400" height="400" viewBox="0 0 400 400" fill="none" xmlns="http://www.w3.org/2000/svg">
<path d="M209.238 25.4624C204.952 25.4794 200.843 27.1706 197.788 30.1749L197.625 30.2999L90.25 92.3624L197.325 199.437V199.512L326.075 328.262L350.613 284.062L262.1 71.5999L220.85 30.3499C219.334 28.8169 217.53 27.5991 215.541 26.7667C213.552 25.9343 211.418 25.5038 209.263 25.4999L209.238 25.4624Z" fill="#66C3FA"/>
<path d="M90.625 91.875L28.6 199.137L28.475 199.3C25.466 202.369 23.7712 206.49 23.75 210.788C23.7524 212.937 24.1812 215.065 25.0115 217.047C25.8419 219.03 27.0574 220.828 28.5875 222.338L80 273.75L281.05 352.837L326.5 327.588L325.25 326.337H324.937L198.9 200.087H198.75L90.625 91.875Z" fill="#215896"/>
<path d="M89.9004 92.0249L199.45 201.687H199.613L325.7 327.937L373.688 318.787L373.75 176.75L323.075 127.087C310.44 115.812 294.607 108.752 277.775 106.887V106.337L89.9004 92.0249Z" fill="#235997"/>
<path d="M90.6992 92.6375L200.299 202.237V202.4L326.449 328.55L317.274 376.537H175.274L125.637 325.837C114.369 313.195 107.317 297.358 105.462 280.525H104.912L90.6992 92.6375Z" fill="#58B6F0"/>
</svg>
