<svg width="400" height="400" viewBox="0 0 400 400" fill="none" xmlns="http://www.w3.org/2000/svg">
<path d="M346.184 287.499C348.538 283.271 350 278.509 350 274.231V125.766C350 121.489 348.539 116.727 346.184 112.5L200 200L346.184 287.499Z" fill="#7F3A86"/>
<path d="M212.993 371.791L337.013 297.559C340.586 295.42 343.833 291.728 346.187 287.5L200.003 200L53.8203 287.5C56.1743 291.728 59.4223 295.421 62.9939 297.559L187.013 371.791C194.157 376.069 205.85 376.069 212.993 371.791Z" fill="#662579"/>
<path d="M346.184 112.499C343.83 108.271 340.581 104.579 337.01 102.44L212.99 28.2077C205.846 23.9308 194.154 23.9308 187.01 28.2077L62.9902 102.44C55.8451 106.716 50 117.214 50 125.766V274.233C50 278.509 51.4617 283.272 53.8166 287.5L200 200L346.184 112.499Z" fill="#9A5196"/>
<path d="M200.481 300C145.076 300 100 255.14 100 200C100 144.86 145.076 100 200.481 100C235.572 100 268.343 118.446 286.488 148.273L243.456 174.081C234.365 159.2 217.999 150 200.481 150C172.777 150 150.241 172.43 150.241 200C150.241 227.57 172.777 250 200.481 250C217.952 250 234.276 240.851 243.384 226.04L286.506 251.699C268.365 281.543 235.584 300 200.481 300Z" fill="white"/>
<path fill-rule="evenodd" clip-rule="evenodd" d="M312.501 162.5V174.968H287.499V162.5H275.001V174.968H262.5V187.5H275.001V212.435H262.5V225H275.001V237.5H287.499L287.5 225H312.501V237.5H324.999V225H337.5V212.5H324.999V187.5H337.5V174.968H324.999V162.5H312.501ZM312.501 212.5V187.5H287.499V212.435L312.501 212.5Z" fill="white"/>
</svg>
