<svg width="400" height="400" viewBox="0 0 400 400" fill="none" xmlns="http://www.w3.org/2000/svg">
<path d="M276.695 315.894C235.437 339.625 178.709 342.064 121.635 317.707C75.4234 298.131 37.0799 263.862 12.5 224.709C24.2984 234.497 38.0629 242.331 52.8105 249.18C111.751 276.688 170.68 274.804 212.15 249.25C153.158 204.218 102.953 145.408 65.5937 97.4434C57.7249 89.6109 51.8256 79.8209 45.9265 71.0105C91.1531 112.127 162.929 164.009 188.486 178.7C134.419 121.915 86.2387 51.4337 88.2012 53.3879C173.741 139.538 253.384 188.488 253.384 188.488C256.019 189.968 258.052 191.199 259.687 192.3C261.411 187.934 262.923 183.4 264.196 178.7C277.96 128.772 262.234 71.9875 227.818 25C307.453 72.969 354.651 163.031 334.981 238.415C334.469 240.449 333.911 242.456 333.31 244.427C372.633 293.379 362.51 346.105 357.595 336.316C336.262 294.751 296.772 307.461 276.695 315.894Z" fill="url(#paint0_linear_162_130)"/>
<defs>
<linearGradient id="paint0_linear_162_130" x1="187.629" y1="25" x2="187.629" y2="337.516" gradientUnits="userSpaceOnUse">
<stop stop-color="#F88A36"/>
<stop offset="1" stop-color="#FD2020"/>
</linearGradient>
</defs>
</svg>
